<?xml version="1.0" encoding="UTF-8"?><svg id="Layer_1" xmlns="http://www.w3.org/2000/svg" xmlns:xlink="http://www.w3.org/1999/xlink" viewBox="0 0 206 125"><defs><clipPath id="clippath"><rect x="5.24" y="4.26" width="195.53" height="85.54" fill="none" stroke-width="0"/></clipPath></defs><rect width="206" height="125" fill="#f5dbc8" stroke-width="0"/><rect x="5.24" y="4.26" width="195.53" height="85.54" fill="#538c35" stroke-width="0"/><g clip-path="url(#clippath)"><path d="M128.06,36c-4.11-2.22-8.99-7-11.13-11.14,3.46,1.96,6.91,3.91,10.37,5.87,1.22.69,2.46,1.39,3.81,1.75,1.72.46,3.54.36,5.32.25,10.76-.65,21.79-1.37,32.12,1.73.63.19,1.33.46,1.58,1.06.39.92-.51,1.85-1.33,2.42-9.52,6.54-22.42,6.52-33.27,2.53-.83-.31-1.7-.64-2.58-.54-.79.09-1.49.51-2.17.92-2.92,1.77-5.84,3.53-8.75,5.3.83-3.92,3-7.55,6.05-10.15" fill="#3848a0" stroke-width="0"/><path d="M128.32,35.55c-4.45-2.46-8.56-6.46-10.94-10.95l-.72.72c3.45,1.96,6.91,3.92,10.37,5.87,1.26.71,2.53,1.43,3.94,1.8,1.63.44,3.34.39,5.01.3,7.34-.4,14.7-.95,22.04-.27,1.81.17,3.61.41,5.4.75.92.17,1.83.37,2.73.59s2.35.36,3.06.94c1.68,1.37-2.59,3.42-3.39,3.84-1.47.78-3,1.42-4.58,1.93-6.12,1.99-12.76,2.05-19.03.77-1.71-.35-3.39-.8-5.04-1.34-1.51-.5-3.13-1.4-4.76-1-1.73.42-3.33,1.76-4.83,2.67-1.95,1.18-3.89,2.36-5.84,3.53l.77.59c.87-3.88,2.92-7.3,5.92-9.92.51-.44-.23-1.18-.74-.74-3.13,2.72-5.28,6.34-6.19,10.38-.1.43.36.84.77.59,1.74-1.05,3.47-2.1,5.21-3.15.83-.5,1.67-1.01,2.5-1.51s1.74-1.2,2.7-1.43c1.05-.24,2.1.27,3.07.61.82.29,1.64.56,2.47.81,1.61.47,3.24.86,4.89,1.15,6.34,1.12,13.03.91,19.14-1.25,1.46-.52,2.89-1.14,4.26-1.88,1.23-.66,2.72-1.4,3.61-2.51,2.47-3.07-2.97-3.95-4.84-4.36-7.54-1.67-15.33-1.6-23-1.21-4.24.21-9.11,1.28-13.06-.69s-8.04-4.52-12.03-6.78c-.47-.26-.96.26-.72.72,2.47,4.65,6.72,8.79,11.32,11.33.59.33,1.12-.58.53-.9h0Z" fill="#3848a0" stroke-width="0"/><path d="M131.05,58.54c4.11,2.22,8.99,7,11.13,11.14-3.46-1.96-6.91-3.91-10.37-5.87-1.22-.69-2.46-1.39-3.81-1.75-1.72-.46-3.54-.36-5.32-.25-10.76.65-21.79,1.37-32.12-1.73-.63-.19-1.33-.46-1.58-1.06-.39-.92.51-1.85,1.33-2.42,9.52-6.54,22.42-6.52,33.27-2.53.83.31,1.7.64,2.58.54.79-.09,1.49-.51,2.17-.92,2.92-1.77,5.84-3.53,8.75-5.3-.83,3.92-3,7.55-6.05,10.15" fill="#3848a0" stroke-width="0"/><path d="M130.78,58.99c4.45,2.46,8.56,6.46,10.94,10.95l.72-.72c-3.45-1.96-6.91-3.92-10.37-5.87-1.26-.71-2.53-1.43-3.94-1.8-1.63-.44-3.34-.39-5.01-.3-7.34.4-14.7.95-22.04.27-1.81-.17-3.61-.41-5.4-.75-.92-.17-1.83-.37-2.73-.59s-2.35-.36-3.06-.94c-1.68-1.37,2.59-3.42,3.39-3.84,1.47-.78,3-1.42,4.58-1.93,6.12-1.99,12.76-2.05,19.03-.77,1.71.35,3.39.8,5.04,1.34,1.51.5,3.13,1.4,4.76,1,1.73-.42,3.33-1.76,4.83-2.67,1.95-1.18,3.89-2.36,5.84-3.53l-.77-.59c-.87,3.88-2.92,7.3-5.92,9.92-.51.44.23,1.18.74.74,3.13-2.72,5.28-6.34,6.19-10.38.1-.43-.36-.84-.77-.59-1.74,1.05-3.47,2.1-5.21,3.15-.83.5-1.67,1.01-2.5,1.51s-1.74,1.2-2.7,1.43c-1.05.24-2.1-.27-3.07-.61-.82-.29-1.64-.56-2.47-.81-1.61-.47-3.24-.86-4.89-1.15-6.34-1.12-13.03-.91-19.14,1.25-1.46.52-2.89,1.14-4.26,1.88-1.23.66-2.72,1.4-3.61,2.51-2.47,3.07,2.97,3.95,4.84,4.36,7.54,1.67,15.33,1.6,23,1.21,4.24-.21,9.11-1.28,13.06.69s8.04,4.52,12.03,6.78c.47.26.96-.26.72-.72-2.47-4.65-6.72-8.79-11.32-11.33-.59-.33-1.12.58-.53.9h0Z" fill="#3848a0" stroke-width="0"/><path d="M125.98,76.97c-4.11-2.22-8.99-7-11.13-11.14,3.46,1.96,6.91,3.91,10.37,5.87,1.22.69,2.46,1.39,3.81,1.75,1.72.46,3.54.36,5.32.25,10.76-.65,21.79-1.37,32.12,1.73.63.19,1.33.46,1.58,1.06.39.92-.51,1.85-1.33,2.42-9.52,6.54-22.42,6.52-33.27,2.53-.83-.31-1.7-.64-2.58-.54-.79.09-1.49.51-2.17.92-2.92,1.77-5.84,3.53-8.75,5.3.83-3.92,3-7.55,6.05-10.15" fill="#3848a0" stroke-width="0"/><path d="M126.24,76.52c-4.45-2.46-8.56-6.46-10.94-10.95l-.72.72c3.45,1.96,6.91,3.92,10.37,5.87,1.26.71,2.53,1.43,3.94,1.8,1.63.44,3.34.39,5.01.3,7.34-.4,14.7-.95,22.04-.27,1.81.17,3.61.41,5.4.75.92.17,1.83.37,2.73.59s2.35.36,3.06.94c1.68,1.37-2.59,3.42-3.39,3.84-1.47.78-3,1.42-4.58,1.93-6.12,1.99-12.76,2.05-19.03.77-1.71-.35-3.39-.8-5.04-1.34-1.51-.5-3.13-1.4-4.76-1-1.73.42-3.33,1.76-4.83,2.67-1.95,1.18-3.89,2.36-5.84,3.53l.77.59c.87-3.88,2.92-7.3,5.92-9.92.51-.44-.23-1.18-.74-.74-3.13,2.72-5.28,6.34-6.19,10.38-.1.43.36.84.77.59,1.74-1.05,3.47-2.1,5.21-3.15.83-.5,1.67-1.01,2.5-1.51s1.74-1.2,2.7-1.43c1.05-.24,2.1.27,3.07.61.82.29,1.64.56,2.47.81,1.61.47,3.24.86,4.89,1.15,6.34,1.12,13.03.91,19.14-1.25,1.46-.52,2.89-1.14,4.26-1.88,1.23-.66,2.72-1.4,3.61-2.51,2.47-3.07-2.97-3.95-4.84-4.36-7.54-1.67-15.33-1.6-23-1.21-4.24.21-9.11,1.28-13.06-.69s-8.04-4.52-12.03-6.78c-.47-.26-.96.26-.72.72,2.47,4.65,6.72,8.79,11.32,11.33.59.33,1.12-.58.53-.9h0Z" fill="#3848a0" stroke-width="0"/><path d="M76.05,36c-4.11-2.22-8.99-7-11.13-11.14,3.46,1.96,6.91,3.91,10.37,5.87,1.22.69,2.46,1.39,3.81,1.75,1.72.46,3.54.36,5.32.25,10.76-.65,21.79-1.37,32.12,1.73.63.19,1.33.46,1.58,1.06.39.92-.51,1.85-1.33,2.42-9.52,6.54-22.42,6.52-33.27,2.53-.83-.31-1.7-.64-2.58-.54-.79.09-1.49.51-2.17.92-2.92,1.77-5.84,3.53-8.75,5.3.83-3.92,3-7.55,6.05-10.15" fill="#3848a0" stroke-width="0"/><path d="M76.31,35.55c-4.45-2.46-8.56-6.46-10.94-10.95l-.72.72c3.45,1.96,6.91,3.92,10.37,5.87,1.26.71,2.53,1.43,3.94,1.8,1.63.44,3.34.39,5.01.3,7.34-.4,14.7-.95,22.04-.27,1.81.17,3.61.41,5.4.75.92.17,1.83.37,2.73.59s2.35.36,3.06.94c1.68,1.37-2.59,3.42-3.39,3.84-1.47.78-3,1.42-4.58,1.93-6.12,1.99-12.76,2.05-19.03.77-1.71-.35-3.39-.8-5.04-1.34-1.51-.5-3.13-1.4-4.76-1-1.73.42-3.33,1.76-4.83,2.67-1.95,1.18-3.89,2.36-5.84,3.53l.77.59c.87-3.88,2.92-7.3,5.92-9.92.51-.44-.23-1.18-.74-.74-3.13,2.72-5.28,6.34-6.19,10.38-.1.43.36.84.77.59,1.74-1.05,3.47-2.1,5.21-3.15.83-.5,1.67-1.01,2.5-1.51s1.74-1.2,2.7-1.43c1.05-.24,2.1.27,3.07.61.82.29,1.64.56,2.47.81,1.61.47,3.24.86,4.89,1.15,6.34,1.12,13.03.91,19.14-1.25,1.46-.52,2.89-1.14,4.26-1.88,1.23-.66,2.72-1.4,3.61-2.51,2.47-3.07-2.97-3.95-4.84-4.36-7.54-1.67-15.33-1.6-23-1.21-4.24.21-9.11,1.28-13.06-.69s-8.04-4.52-12.03-6.78c-.47-.26-.96.26-.72.72,2.47,4.65,6.72,8.79,11.32,11.33.59.33,1.12-.58.53-.9h0Z" fill="#3848a0" stroke-width="0"/><path d="M79.04,58.54c4.11,2.22,8.99,7,11.13,11.14-3.46-1.96-6.91-3.91-10.37-5.87-1.22-.69-2.46-1.39-3.81-1.75-1.72-.46-3.54-.36-5.32-.25-10.76.65-21.79,1.37-32.12-1.73-.63-.19-1.33-.46-1.58-1.06-.39-.92.51-1.85,1.33-2.42,9.52-6.54,22.42-6.52,33.27-2.53.83.31,1.7.64,2.58.54.79-.09,1.49-.51,2.17-.92,2.92-1.77,5.84-3.53,8.75-5.3-.83,3.92-3,7.55-6.05,10.15" fill="#3848a0" stroke-width="0"/><path d="M78.78,58.99c4.45,2.46,8.56,6.46,10.94,10.95l.72-.72c-3.45-1.96-6.91-3.92-10.37-5.87-1.26-.71-2.53-1.43-3.94-1.8-1.63-.44-3.34-.39-5.01-.3-7.34.4-14.7.95-22.04.27-1.81-.17-3.61-.41-5.4-.75-.92-.17-1.83-.37-2.73-.59s-2.35-.36-3.06-.94c-1.68-1.37,2.59-3.42,3.39-3.84,1.47-.78,3-1.42,4.58-1.93,6.12-1.99,12.76-2.05,19.03-.77,1.71.35,3.39.8,5.04,1.34,1.51.5,3.13,1.4,4.76,1,1.73-.42,3.33-1.76,4.83-2.67,1.95-1.18,3.89-2.36,5.84-3.53l-.77-.59c-.87,3.88-2.92,7.3-5.92,9.92-.51.44.23,1.18.74.74,3.13-2.72,5.28-6.34,6.19-10.38.1-.43-.36-.84-.77-.59-1.74,1.05-3.47,2.1-5.21,3.15-.83.5-1.67,1.01-2.5,1.51s-1.74,1.2-2.7,1.43c-1.05.24-2.1-.27-3.07-.61-.82-.29-1.64-.56-2.47-.81-1.61-.47-3.24-.86-4.89-1.15-6.34-1.12-13.03-.91-19.14,1.25-1.46.52-2.89,1.14-4.26,1.88-1.23.66-2.72,1.4-3.61,2.51-2.47,3.07,2.97,3.95,4.84,4.36,7.54,1.67,15.33,1.6,23,1.21,4.24-.21,9.11-1.28,13.06.69s8.04,4.52,12.03,6.78c.47.26.96-.26.72-.72-2.47-4.65-6.72-8.79-11.32-11.33-.59-.33-1.12.58-.53.9h0Z" fill="#3848a0" stroke-width="0"/><path d="M79.04,16.96c4.11,2.22,8.99,7,11.13,11.14-3.46-1.96-6.91-3.91-10.37-5.87-1.22-.69-2.46-1.39-3.81-1.75-1.72-.46-3.54-.36-5.32-.25-10.76.65-21.79,1.37-32.12-1.73-.63-.19-1.33-.46-1.58-1.06-.39-.92.51-1.85,1.33-2.42,9.52-6.54,22.42-6.52,33.27-2.53.83.31,1.7.64,2.58.54.79-.09,1.49-.51,2.17-.92,2.92-1.77,5.84-3.53,8.75-5.3-.83,3.92-3,7.55-6.05,10.15" fill="#3848a0" stroke-width="0"/><path d="M78.78,17.41c4.45,2.46,8.56,6.46,10.94,10.95l.72-.72c-3.45-1.96-6.91-3.92-10.37-5.87-1.26-.71-2.53-1.43-3.94-1.8-1.63-.44-3.34-.39-5.01-.3-7.34.4-14.7.95-22.04.27-1.81-.17-3.61-.41-5.4-.75-.92-.17-1.83-.37-2.73-.59s-2.35-.36-3.06-.94c-1.68-1.37,2.59-3.42,3.39-3.84,1.47-.78,3-1.42,4.58-1.93,6.12-1.99,12.76-2.05,19.03-.77,1.71.35,3.39.8,5.04,1.34,1.51.5,3.13,1.4,4.76,1,1.73-.42,3.33-1.76,4.83-2.67,1.95-1.18,3.89-2.36,5.84-3.53l-.77-.59c-.87,3.88-2.92,7.3-5.92,9.92-.51.44.23,1.18.74.74,3.13-2.72,5.28-6.34,6.19-10.38.1-.43-.36-.84-.77-.59-1.74,1.05-3.47,2.1-5.21,3.15-.83.5-1.67,1.01-2.5,1.51s-1.74,1.2-2.7,1.43c-1.05.24-2.1-.27-3.07-.61-.82-.29-1.64-.56-2.47-.81-1.61-.47-3.24-.86-4.89-1.15-6.34-1.12-13.03-.91-19.14,1.25-1.46.52-2.89,1.14-4.26,1.88-1.23.66-2.72,1.4-3.61,2.51-2.47,3.07,2.97,3.95,4.84,4.36,7.54,1.67,15.33,1.6,23,1.21,4.24-.21,9.11-1.28,13.06.69s8.04,4.52,12.03,6.78c.47.26.96-.26.72-.72-2.47-4.65-6.72-8.79-11.32-11.33-.59-.33-1.12.58-.53.9h0Z" fill="#3848a0" stroke-width="0"/><path d="M73.97,76.97c-4.11-2.22-8.99-7-11.13-11.14,3.46,1.96,6.91,3.91,10.37,5.87,1.22.69,2.46,1.39,3.81,1.75,1.72.46,3.54.36,5.32.25,10.76-.65,21.79-1.37,32.12,1.73.63.19,1.33.46,1.58,1.06.39.92-.51,1.85-1.33,2.42-9.52,6.54-22.42,6.52-33.27,2.53-.83-.31-1.7-.64-2.58-.54-.79.09-1.49.51-2.17.92-2.92,1.77-5.84,3.53-8.75,5.3.83-3.92,3-7.55,6.05-10.15" fill="#3848a0" stroke-width="0"/><path d="M74.24,76.52c-4.45-2.46-8.56-6.46-10.94-10.95l-.72.72c3.45,1.96,6.91,3.92,10.37,5.87,1.26.71,2.53,1.43,3.94,1.8,1.63.44,3.34.39,5.01.3,7.34-.4,14.7-.95,22.04-.27,1.81.17,3.61.41,5.4.75.92.17,1.83.37,2.73.59s2.35.36,3.06.94c1.68,1.37-2.59,3.42-3.39,3.84-1.47.78-3,1.42-4.58,1.93-6.12,1.99-12.76,2.05-19.03.77-1.71-.35-3.39-.8-5.04-1.34-1.51-.5-3.13-1.4-4.76-1-1.73.42-3.33,1.76-4.83,2.67-1.95,1.18-3.89,2.36-5.84,3.53l.77.59c.87-3.88,2.92-7.3,5.92-9.92.51-.44-.23-1.18-.74-.74-3.13,2.72-5.28,6.34-6.19,10.38-.1.43.36.84.77.59,1.74-1.05,3.47-2.1,5.21-3.15.83-.5,1.67-1.01,2.5-1.51s1.74-1.2,2.7-1.43c1.05-.24,2.1.27,3.07.61.82.29,1.64.56,2.47.81,1.61.47,3.24.86,4.89,1.15,6.34,1.12,13.03.91,19.14-1.25,1.46-.52,2.89-1.14,4.26-1.88,1.23-.66,2.72-1.4,3.61-2.51,2.47-3.07-2.97-3.95-4.84-4.36-7.54-1.67-15.33-1.6-23-1.21-4.24.21-9.11,1.28-13.06-.69s-8.04-4.52-12.03-6.78c-.47-.26-.96.26-.72.72,2.47,4.65,6.72,8.79,11.32,11.33.59.33,1.12-.58.53-.9h0Z" fill="#3848a0" stroke-width="0"/><path d="M22.46,36c-4.11-2.22-8.99-7-11.13-11.14,3.46,1.96,6.91,3.91,10.37,5.87,1.22.69,2.46,1.39,3.81,1.75,1.72.46,3.54.36,5.32.25,10.76-.65,21.79-1.37,32.12,1.73.63.19,1.33.46,1.58,1.06.39.92-.51,1.85-1.33,2.42-9.52,6.54-22.42,6.52-33.27,2.53-.83-.31-1.7-.64-2.58-.54-.79.09-1.49.51-2.17.92-2.92,1.77-5.84,3.53-8.75,5.3.83-3.92,3-7.55,6.05-10.15" fill="#3848a0" stroke-width="0"/><path d="M22.72,35.55c-4.45-2.46-8.56-6.46-10.94-10.95l-.72.72c3.45,1.96,6.91,3.92,10.37,5.87,1.26.71,2.53,1.43,3.94,1.8,1.63.44,3.34.39,5.01.3,7.34-.4,14.7-.95,22.04-.27,1.81.17,3.61.41,5.4.75.92.17,1.83.37,2.73.59s2.35.36,3.06.94c1.68,1.37-2.59,3.42-3.39,3.84-1.47.78-3,1.42-4.58,1.93-6.12,1.99-12.76,2.05-19.03.77-1.71-.35-3.39-.8-5.04-1.34-1.51-.5-3.13-1.4-4.76-1-1.73.42-3.33,1.76-4.83,2.67-1.95,1.18-3.89,2.36-5.84,3.53l.77.59c.87-3.88,2.92-7.3,5.92-9.92.51-.44-.23-1.18-.74-.74-3.13,2.72-5.28,6.34-6.19,10.38-.1.43.36.84.77.59,1.74-1.05,3.47-2.1,5.21-3.15.83-.5,1.67-1.01,2.5-1.51s1.74-1.2,2.7-1.43c1.05-.24,2.1.27,3.07.61.82.29,1.64.56,2.47.81,1.61.47,3.24.86,4.89,1.15,6.34,1.12,13.03.91,19.14-1.25,1.46-.52,2.89-1.14,4.26-1.88,1.23-.66,2.72-1.4,3.61-2.51,2.47-3.07-2.97-3.95-4.84-4.36-7.54-1.67-15.33-1.6-23-1.21-4.24.21-9.11,1.28-13.06-.69s-8.04-4.52-12.03-6.78c-.47-.26-.96.26-.72.72,2.47,4.65,6.72,8.79,11.32,11.33.59.33,1.12-.58.53-.9h0Z" fill="#3848a0" stroke-width="0"/><path d="M25.45,58.54c4.11,2.22,8.99,7,11.13,11.14-3.46-1.96-6.91-3.91-10.37-5.87-1.22-.69-2.46-1.39-3.81-1.75-1.72-.46-3.54-.36-5.32-.25-10.76.65-21.79,1.37-32.12-1.73-.63-.19-1.33-.46-1.58-1.06-.39-.92.51-1.85,1.33-2.42,9.52-6.54,22.42-6.52,33.27-2.53.83.31,1.7.64,2.58.54.79-.09,1.49-.51,2.17-.92,2.92-1.77,5.84-3.53,8.75-5.3-.83,3.92-3,7.55-6.05,10.15" fill="#3848a0" stroke-width="0"/><path d="M25.19,58.99c4.45,2.46,8.56,6.46,10.94,10.95l.72-.72c-3.45-1.96-6.91-3.92-10.37-5.87-1.26-.71-2.53-1.43-3.94-1.8-1.63-.44-3.34-.39-5.01-.3-7.34.4-14.7.95-22.04.27-1.81-.17-3.61-.41-5.4-.75-.92-.17-1.83-.37-2.73-.59s-2.35-.36-3.06-.94c-1.68-1.37,2.59-3.42,3.39-3.84,1.47-.78,3-1.42,4.58-1.93,6.12-1.99,12.76-2.05,19.03-.77,1.71.35,3.39.8,5.04,1.34,1.51.5,3.13,1.4,4.76,1,1.73-.42,3.33-1.76,4.83-2.67,1.95-1.18,3.89-2.36,5.84-3.53l-.77-.59c-.87,3.88-2.92,7.3-5.92,9.92-.51.44.23,1.18.74.74,3.13-2.72,5.28-6.34,6.19-10.38.1-.43-.36-.84-.77-.59-1.74,1.05-3.47,2.1-5.21,3.15-.83.5-1.67,1.01-2.5,1.51s-1.74,1.2-2.7,1.43c-1.05.24-2.1-.27-3.07-.61-.82-.29-1.64-.56-2.47-.81-1.61-.47-3.24-.86-4.89-1.15-6.34-1.12-13.03-.91-19.14,1.25-1.46.52-2.89,1.14-4.26,1.88-1.23.66-2.72,1.4-3.61,2.51-2.47,3.07,2.97,3.95,4.84,4.36,7.54,1.67,15.33,1.6,23,1.21,4.24-.21,9.11-1.28,13.06.69s8.04,4.52,12.03,6.78c.47.26.96-.26.72-.72-2.47-4.65-6.72-8.79-11.32-11.33-.59-.33-1.12.58-.53.9h0Z" fill="#3848a0" stroke-width="0"/><path d="M20.38,76.97c-4.11-2.22-8.99-7-11.13-11.14,3.46,1.96,6.91,3.91,10.37,5.87,1.22.69,2.46,1.39,3.81,1.75,1.72.46,3.54.36,5.32.25,10.76-.65,21.79-1.37,32.12,1.73.63.19,1.33.46,1.58,1.06.39.92-.51,1.85-1.33,2.42-9.52,6.54-22.42,6.52-33.27,2.53-.83-.31-1.7-.64-2.58-.54-.79.09-1.49.51-2.17.92-2.92,1.77-5.84,3.53-8.75,5.3.83-3.92,3-7.55,6.05-10.15" fill="#3848a0" stroke-width="0"/><path d="M20.65,76.52c-4.45-2.46-8.56-6.46-10.94-10.95l-.72.72c3.45,1.96,6.91,3.92,10.37,5.87,1.26.71,2.53,1.43,3.94,1.8,1.63.44,3.34.39,5.01.3,7.34-.4,14.7-.95,22.04-.27,1.81.17,3.61.41,5.4.75.92.17,1.83.37,2.73.59s2.35.36,3.06.94c1.68,1.37-2.59,3.42-3.39,3.84-1.47.78-3,1.42-4.58,1.93-6.12,1.99-12.76,2.05-19.03.77-1.71-.35-3.39-.8-5.04-1.34-1.51-.5-3.13-1.4-4.76-1-1.73.42-3.33,1.76-4.83,2.67-1.95,1.18-3.89,2.36-5.84,3.53l.77.59c.87-3.88,2.92-7.3,5.92-9.92.51-.44-.23-1.18-.74-.74-3.13,2.72-5.28,6.34-6.19,10.38-.1.43.36.84.77.59,1.74-1.05,3.47-2.1,5.21-3.15.83-.5,1.67-1.01,2.5-1.51s1.74-1.2,2.7-1.43c1.05-.24,2.1.27,3.07.61.82.29,1.64.56,2.47.81,1.61.47,3.24.86,4.89,1.15,6.34,1.12,13.03.91,19.14-1.25,1.46-.52,2.89-1.14,4.26-1.88,1.23-.66,2.72-1.4,3.61-2.51,2.47-3.07-2.97-3.95-4.84-4.36-7.54-1.67-15.33-1.6-23-1.21-4.24.21-9.11,1.28-13.06-.69s-8.04-4.52-12.03-6.78c-.47-.26-.96.26-.72.72,2.47,4.65,6.72,8.79,11.32,11.33.59.33,1.12-.58.53-.9h0Z" fill="#3848a0" stroke-width="0"/><path d="M179.96,36c-4.11-2.22-8.99-7-11.13-11.14,3.46,1.96,6.91,3.91,10.37,5.87,1.22.69,2.46,1.39,3.81,1.75,1.72.46,3.54.36,5.32.25,10.76-.65,21.79-1.37,32.12,1.73.63.19,1.33.46,1.58,1.06.39.92-.51,1.85-1.33,2.42-9.52,6.54-22.42,6.52-33.27,2.53-.83-.31-1.7-.64-2.58-.54-.79.09-1.49.51-2.17.92-2.92,1.77-5.84,3.53-8.75,5.3.83-3.92,3-7.55,6.05-10.15" fill="#3848a0" stroke-width="0"/><path d="M180.23,35.55c-4.45-2.46-8.56-6.46-10.94-10.95l-.72.72c3.45,1.96,6.91,3.92,10.37,5.87,1.26.71,2.53,1.43,3.94,1.8,1.63.44,3.34.39,5.01.3,7.34-.4,14.7-.95,22.04-.27,1.81.17,3.61.41,5.4.75.92.17,1.83.37,2.73.59s2.35.36,3.06.94c1.68,1.37-2.59,3.42-3.39,3.84-1.47.78-3,1.42-4.58,1.93-6.12,1.99-12.76,2.05-19.03.77-1.71-.35-3.39-.8-5.04-1.34-1.51-.5-3.13-1.4-4.76-1-1.73.42-3.33,1.76-4.83,2.67-1.95,1.18-3.89,2.36-5.84,3.53l.77.59c.87-3.88,2.92-7.3,5.92-9.92.51-.44-.23-1.18-.74-.74-3.13,2.72-5.28,6.34-6.19,10.38-.1.43.36.84.77.59,1.74-1.05,3.47-2.1,5.21-3.15.83-.5,1.67-1.01,2.5-1.51s1.74-1.2,2.7-1.43c1.05-.24,2.1.27,3.07.61.82.29,1.64.56,2.47.81,1.61.47,3.24.86,4.89,1.15,6.34,1.12,13.03.91,19.14-1.25,1.46-.52,2.89-1.14,4.26-1.88,1.23-.66,2.72-1.4,3.61-2.51,2.47-3.07-2.97-3.95-4.84-4.36-7.54-1.67-15.33-1.6-23-1.21-4.24.21-9.11,1.28-13.06-.69s-8.04-4.52-12.03-6.78c-.47-.26-.96.26-.72.72,2.47,4.65,6.72,8.79,11.32,11.33.59.33,1.12-.58.53-.9h0Z" fill="#3848a0" stroke-width="0"/><path d="M182.96,58.54c4.11,2.22,8.99,7,11.13,11.14-3.46-1.96-6.91-3.91-10.37-5.87-1.22-.69-2.46-1.39-3.81-1.75-1.72-.46-3.54-.36-5.32-.25-10.76.65-21.79,1.37-32.12-1.73-.63-.19-1.33-.46-1.58-1.06-.39-.92.51-1.85,1.33-2.42,9.52-6.54,22.42-6.52,33.27-2.53.83.31,1.7.64,2.58.54.79-.09,1.49-.51,2.17-.92,2.92-1.77,5.84-3.53,8.75-5.3-.83,3.92-3,7.55-6.05,10.15" fill="#3848a0" stroke-width="0"/><path d="M182.69,58.99c4.45,2.46,8.56,6.46,10.94,10.95l.72-.72c-3.45-1.96-6.91-3.92-10.37-5.87-1.26-.71-2.53-1.43-3.94-1.8-1.63-.44-3.34-.39-5.01-.3-7.34.4-14.7.95-22.04.27-1.81-.17-3.61-.41-5.4-.75-.92-.17-1.83-.37-2.73-.59s-2.35-.36-3.06-.94c-1.68-1.37,2.59-3.42,3.39-3.84,1.47-.78,3-1.42,4.58-1.93,6.12-1.99,12.76-2.05,19.03-.77,1.71.35,3.39.8,5.04,1.34,1.51.5,3.13,1.4,4.76,1,1.73-.42,3.33-1.76,4.83-2.67,1.95-1.18,3.89-2.36,5.84-3.53l-.77-.59c-.87,3.88-2.92,7.3-5.92,9.92-.51.44.23,1.18.74.74,3.13-2.72,5.28-6.34,6.19-10.38.1-.43-.36-.84-.77-.59-1.74,1.05-3.47,2.1-5.21,3.15-.83.5-1.67,1.01-2.5,1.51s-1.74,1.2-2.7,1.43c-1.05.24-2.1-.27-3.07-.61-.82-.29-1.64-.56-2.47-.81-1.61-.47-3.24-.86-4.89-1.15-6.34-1.12-13.03-.91-19.14,1.25-1.46.52-2.89,1.14-4.26,1.88-1.23.66-2.72,1.4-3.61,2.51-2.47,3.07,2.97,3.95,4.84,4.36,7.54,1.67,15.33,1.6,23,1.21,4.24-.21,9.11-1.28,13.06.69s8.04,4.52,12.03,6.78c.47.26.96-.26.72-.72-2.47-4.65-6.72-8.79-11.32-11.33-.59-.33-1.12.58-.53.9h0Z" fill="#3848a0" stroke-width="0"/><path d="M131.05,16.96c4.11,2.22,8.99,7,11.13,11.14-3.46-1.96-6.91-3.91-10.37-5.87-1.22-.69-2.46-1.39-3.81-1.75-1.72-.46-3.54-.36-5.32-.25-10.76.65-21.79,1.37-32.12-1.73-.63-.19-1.33-.46-1.58-1.06-.39-.92.51-1.85,1.33-2.42,9.52-6.54,22.42-6.52,33.27-2.53.83.31,1.7.64,2.58.54.79-.09,1.49-.51,2.17-.92,2.92-1.77,5.84-3.53,8.75-5.3-.83,3.92-3,7.55-6.05,10.15" fill="#3848a0" stroke-width="0"/><path d="M130.78,17.41c4.45,2.46,8.56,6.46,10.94,10.95l.72-.72c-3.45-1.96-6.91-3.92-10.37-5.87-1.26-.71-2.53-1.43-3.94-1.8-1.63-.44-3.34-.39-5.01-.3-7.34.4-14.7.95-22.04.27-1.81-.17-3.61-.41-5.4-.75-.92-.17-1.83-.37-2.73-.59s-2.35-.36-3.06-.94c-1.68-1.37,2.59-3.42,3.39-3.84,1.47-.78,3-1.42,4.58-1.93,6.12-1.99,12.76-2.05,19.03-.77,1.71.35,3.39.8,5.04,1.34,1.51.5,3.13,1.4,4.76,1,1.73-.42,3.33-1.76,4.83-2.67,1.95-1.18,3.89-2.36,5.84-3.53l-.77-.59c-.87,3.88-2.92,7.3-5.92,9.92-.51.44.23,1.18.74.74,3.13-2.72,5.28-6.34,6.19-10.38.1-.43-.36-.84-.77-.59-1.74,1.05-3.47,2.1-5.21,3.15-.83.5-1.67,1.01-2.5,1.51s-1.74,1.2-2.7,1.43c-1.05.24-2.1-.27-3.07-.61-.82-.29-1.64-.56-2.47-.81-1.61-.47-3.24-.86-4.89-1.15-6.34-1.12-13.03-.91-19.14,1.25-1.46.52-2.89,1.14-4.26,1.88-1.23.66-2.72,1.4-3.61,2.51-2.47,3.07,2.97,3.95,4.84,4.36,7.54,1.67,15.33,1.6,23,1.21,4.24-.21,9.11-1.28,13.06.69s8.04,4.52,12.03,6.78c.47.26.96-.26.72-.72-2.47-4.65-6.72-8.79-11.32-11.33-.59-.33-1.12.58-.53.9h0Z" fill="#3848a0" stroke-width="0"/><path d="M25.45,16.96c4.11,2.22,8.99,7,11.13,11.14-3.46-1.96-6.91-3.91-10.37-5.87-1.22-.69-2.46-1.39-3.81-1.75-1.72-.46-3.54-.36-5.32-.25-10.76.65-21.79,1.37-32.12-1.73-.63-.19-1.33-.46-1.58-1.06-.39-.92.51-1.85,1.33-2.42,9.52-6.54,22.42-6.52,33.27-2.53.83.31,1.7.64,2.58.54.79-.09,1.49-.51,2.17-.92,2.92-1.77,5.84-3.53,8.75-5.3-.83,3.92-3,7.55-6.05,10.15" fill="#3848a0" stroke-width="0"/><path d="M25.19,17.41c4.45,2.46,8.56,6.46,10.94,10.95l.72-.72c-3.45-1.96-6.91-3.92-10.37-5.87-1.26-.71-2.53-1.43-3.94-1.8-1.63-.44-3.34-.39-5.01-.3-7.34.4-14.7.95-22.04.27-1.81-.17-3.61-.41-5.4-.75-.92-.17-1.83-.37-2.73-.59s-2.35-.36-3.06-.94c-1.68-1.37,2.59-3.42,3.39-3.84,1.47-.78,3-1.42,4.58-1.93,6.12-1.99,12.76-2.05,19.03-.77,1.71.35,3.39.8,5.04,1.34,1.51.5,3.13,1.4,4.76,1,1.73-.42,3.33-1.76,4.83-2.67,1.95-1.18,3.89-2.36,5.84-3.53l-.77-.59c-.87,3.88-2.92,7.3-5.92,9.92-.51.44.23,1.18.74.74,3.13-2.72,5.28-6.34,6.19-10.38.1-.43-.36-.84-.77-.59-1.74,1.05-3.47,2.1-5.21,3.15-.83.5-1.67,1.01-2.5,1.51s-1.74,1.2-2.7,1.43c-1.05.24-2.1-.27-3.07-.61-.82-.29-1.64-.56-2.47-.81-1.61-.47-3.24-.86-4.89-1.15-6.34-1.12-13.03-.91-19.14,1.25-1.46.52-2.89,1.14-4.26,1.88-1.23.66-2.72,1.4-3.61,2.51-2.47,3.07,2.97,3.95,4.84,4.36,7.54,1.67,15.33,1.6,23,1.21,4.24-.21,9.11-1.28,13.06.69s8.04,4.52,12.03,6.78c.47.26.96-.26.72-.72-2.47-4.65-6.72-8.79-11.32-11.33-.59-.33-1.12.58-.53.9h0Z" fill="#3848a0" stroke-width="0"/><path d="M182.96,16.96c4.11,2.22,8.99,7,11.13,11.14-3.46-1.96-6.91-3.91-10.37-5.87-1.22-.69-2.46-1.39-3.81-1.75-1.72-.46-3.54-.36-5.32-.25-10.76.65-21.79,1.37-32.12-1.73-.63-.19-1.33-.46-1.58-1.06-.39-.92.51-1.85,1.33-2.42,9.52-6.54,22.42-6.52,33.27-2.53.83.31,1.7.64,2.58.54.79-.09,1.49-.51,2.17-.92,2.92-1.77,5.84-3.53,8.75-5.3-.83,3.92-3,7.55-6.05,10.15" fill="#3848a0" stroke-width="0"/><path d="M182.69,17.41c4.45,2.46,8.56,6.46,10.94,10.95l.72-.72c-3.45-1.96-6.91-3.92-10.37-5.87-1.26-.71-2.53-1.43-3.94-1.8-1.63-.44-3.34-.39-5.01-.3-7.34.4-14.7.95-22.04.27-1.81-.17-3.61-.41-5.4-.75-.92-.17-1.83-.37-2.73-.59s-2.35-.36-3.06-.94c-1.68-1.37,2.59-3.42,3.39-3.84,1.47-.78,3-1.42,4.58-1.93,6.12-1.99,12.76-2.05,19.03-.77,1.71.35,3.39.8,5.04,1.34,1.51.5,3.13,1.4,4.76,1,1.73-.42,3.33-1.76,4.83-2.67,1.95-1.18,3.89-2.36,5.84-3.53l-.77-.59c-.87,3.88-2.92,7.3-5.92,9.92-.51.44.23,1.18.74.74,3.13-2.72,5.28-6.34,6.19-10.38.1-.43-.36-.84-.77-.59-1.74,1.05-3.47,2.1-5.21,3.15-.83.5-1.67,1.01-2.5,1.51s-1.74,1.2-2.7,1.43c-1.05.24-2.1-.27-3.07-.61-.82-.29-1.64-.56-2.47-.81-1.61-.47-3.24-.86-4.89-1.15-6.34-1.12-13.03-.91-19.14,1.25-1.46.52-2.89,1.14-4.26,1.88-1.23.66-2.72,1.4-3.61,2.51-2.47,3.07,2.97,3.95,4.84,4.36,7.54,1.67,15.33,1.6,23,1.21,4.24-.21,9.11-1.28,13.06.69,4.11,2.04,8.04,4.52,12.03,6.78.47.26.96-.26.72-.72-2.47-4.65-6.72-8.79-11.32-11.33-.59-.33-1.12.58-.53.9h0Z" fill="#3848a0" stroke-width="0"/><path d="M177.89,76.97c-4.11-2.22-8.99-7-11.13-11.14,3.46,1.96,6.91,3.91,10.37,5.87,1.22.69,2.46,1.39,3.81,1.75,1.72.46,3.54.36,5.32.25,10.76-.65,21.79-1.37,32.12,1.73.63.19,1.33.46,1.58,1.06.39.92-.51,1.85-1.33,2.42-9.52,6.54-22.42,6.52-33.27,2.53-.83-.31-1.7-.64-2.58-.54-.79.09-1.49.51-2.17.92-2.92,1.77-5.84,3.53-8.75,5.3.83-3.92,3-7.55,6.05-10.15" fill="#3848a0" stroke-width="0"/><path d="M178.15,76.52c-4.45-2.46-8.56-6.46-10.94-10.95l-.72.72c3.45,1.96,6.91,3.92,10.37,5.87,1.26.71,2.53,1.43,3.94,1.8,1.63.44,3.34.39,5.01.3,7.34-.4,14.7-.95,22.04-.27,1.81.17,3.61.41,5.4.75.92.17,1.83.37,2.73.59s2.35.36,3.06.94c1.68,1.37-2.59,3.42-3.39,3.84-1.47.78-3,1.42-4.58,1.93-6.12,1.99-12.76,2.05-19.03.77-1.71-.35-3.39-.8-5.04-1.34-1.51-.5-3.13-1.4-4.76-1-1.73.42-3.33,1.76-4.83,2.67-1.95,1.18-3.89,2.36-5.84,3.53l.77.59c.87-3.88,2.92-7.3,5.92-9.92.51-.44-.23-1.18-.74-.74-3.13,2.72-5.28,6.34-6.19,10.38-.1.43.36.84.77.59,1.74-1.05,3.47-2.1,5.21-3.15.83-.5,1.67-1.01,2.5-1.51s1.74-1.2,2.7-1.43c1.05-.24,2.1.27,3.07.61.82.29,1.64.56,2.47.81,1.61.47,3.24.86,4.89,1.15,6.34,1.12,13.03.91,19.14-1.25,1.46-.52,2.89-1.14,4.26-1.88,1.23-.66,2.72-1.4,3.61-2.51,2.47-3.07-2.97-3.95-4.84-4.36-7.54-1.67-15.33-1.6-23-1.21-4.24.21-9.11,1.28-13.06-.69s-8.04-4.52-12.03-6.78c-.47-.26-.96.26-.72.72,2.47,4.65,6.72,8.79,11.32,11.33.59.33,1.12-.58.53-.9h0Z" fill="#3848a0" stroke-width="0"/></g><circle cx="43.72" cy="35.73" r="25.14" fill="#dda403" stroke-width="0"/><path d="M27.73,23.7l-.73.63c-.2-.24-.37-.39-.53-.44-.16-.07-.35-.08-.58-.04-.28.05-.5.17-.65.36s-.21.4-.17.64c.06.33.35.54.87.66l.71.15c.58.12,1.02.32,1.33.59.3.27.5.64.58,1.09.11.61,0,1.16-.34,1.63-.34.48-.82.77-1.43.87-.58.1-1.09.02-1.52-.26-.43-.28-.75-.72-.95-1.32l.98-.41c.11.38.24.64.38.77.26.25.59.34.98.27.31-.05.56-.21.73-.45.17-.25.23-.53.17-.85-.02-.13-.06-.25-.12-.35-.05-.1-.13-.19-.22-.27-.09-.08-.21-.14-.34-.2-.14-.06-.29-.11-.47-.15l-.69-.15c-.98-.23-1.54-.71-1.67-1.45-.09-.5.03-.95.35-1.36.32-.41.77-.66,1.34-.76.77-.14,1.43.13,2,.8Z" fill="#3848a0" stroke-width="0"/><path d="M30.16,22.24l1.17,6.67-1.01.18-1.17-6.67,1.01-.18Z" fill="#3848a0" stroke-width="0"/><path d="M33.16,28.59l-1.25-7.12,5.76,4.23-.82-4.63,1.01-.18,1.25,7.07-5.76-4.22.82,4.67-1.01.18Z" fill="#3848a0" stroke-width="0"/><path d="M44.06,23.87l.48,2.71-1.01.18-1.17-6.67,1.14-.2c.56-.1.99-.14,1.29-.11.3.03.58.13.84.3.45.31.72.75.82,1.32.11.61-.01,1.13-.36,1.56-.34.43-.87.7-1.56.83l-.47.08ZM43.89,22.94l.38-.07c.92-.16,1.32-.6,1.2-1.31-.12-.69-.66-.95-1.61-.78l-.33.06.37,2.1Z" fill="#3848a0" stroke-width="0"/><path d="M48.3,19.05l1.17,6.67-1.01.18-1.17-6.67,1.01-.18Z" fill="#3848a0" stroke-width="0"/><path d="M53.97,19.02l-2.67.47.28,1.6,2.6-.46.17.94-2.6.46.39,2.23,2.67-.47.17.94-3.68.65-1.17-6.67,3.68-.65.17.95Z" fill="#3848a0" stroke-width="0"/><path d="M56.37,17.62l1.01,5.72,1.96-.35.17.95-2.97.52-1.17-6.67,1.01-.18Z" fill="#3848a0" stroke-width="0"/><path d="M42.57,33.13l-2.21-2.65.9-.16,1.55,1.86.82-2.28.9-.16-1.18,3.24.39,2.24-.78.14-.39-2.24Z" fill="#3848a0" stroke="#3848a0" stroke-miterlimit="10" stroke-width=".09"/><path d="M41.36,39.2l-.57.49c-.15-.19-.29-.3-.41-.34-.12-.05-.27-.06-.45-.03-.22.04-.39.13-.51.28-.12.15-.17.31-.13.49.04.25.27.42.67.51l.56.12c.45.1.79.25,1.03.46.24.21.39.49.45.85.08.48,0,.9-.27,1.27-.27.37-.64.6-1.11.68-.45.08-.85.01-1.19-.2-.34-.22-.58-.56-.74-1.03l.76-.31c.09.3.19.5.3.6.2.19.45.26.76.21.24-.04.43-.16.57-.35.13-.19.18-.41.13-.66-.02-.1-.05-.19-.09-.27-.04-.08-.1-.15-.17-.21-.07-.06-.16-.11-.27-.16-.1-.04-.23-.08-.37-.12l-.54-.12c-.76-.17-1.2-.55-1.3-1.13-.07-.39.02-.74.27-1.05.25-.32.6-.51,1.04-.59.6-.11,1.11.1,1.55.63Z" fill="#3848a0" stroke-width="0"/><path d="M43.33,38.06l.91,5.18-.78.14-.91-5.18.78-.14Z" fill="#3848a0" stroke-width="0"/><path d="M45.72,42.99l-.98-5.54,4.48,3.29-.64-3.6.78-.14.97,5.5-4.48-3.28.64,3.63-.78.14Z" fill="#3848a0" stroke-width="0"/><path d="M31.12,48.06l-2.08.37.22,1.25,2.02-.36.13.74-2.02.36.3,1.73,2.08-.37.13.73-2.86.5-.91-5.18,2.86-.5.13.74Z" fill="#3848a0" stroke-width="0"/><path d="M35.23,47.38l-.57.49c-.16-.18-.29-.3-.41-.34-.12-.05-.28-.06-.45-.03-.22.04-.39.13-.51.28-.12.15-.17.31-.14.49.04.25.27.42.67.51l.55.12c.45.1.8.25,1.03.46.24.21.39.49.45.85.08.48,0,.9-.27,1.27-.26.37-.63.6-1.11.68-.45.08-.85.01-1.18-.2-.34-.22-.58-.56-.74-1.03l.76-.31c.09.3.19.5.3.6.2.19.46.27.76.21.24-.04.43-.16.56-.35.13-.19.18-.41.13-.66-.02-.1-.05-.19-.09-.27s-.1-.15-.17-.21-.16-.11-.26-.16c-.11-.04-.23-.08-.37-.12l-.54-.12c-.76-.17-1.19-.55-1.3-1.13-.07-.39.02-.74.27-1.06.25-.32.6-.51,1.04-.59.6-.11,1.11.1,1.55.63Z" fill="#3848a0" stroke-width="0"/><path d="M40.26,45.98l.16.93c-.52-.3-1.02-.41-1.5-.32-.53.09-.95.36-1.25.81-.3.44-.4.94-.3,1.49.1.54.36.97.79,1.28.43.31.92.42,1.45.32.27-.05.5-.14.68-.26.1-.06.2-.14.3-.24.1-.1.21-.21.32-.34l.17.94c-.4.33-.85.54-1.34.63-.74.13-1.42-.02-2.03-.44-.61-.43-.98-1.01-1.12-1.75-.12-.66,0-1.29.34-1.88.43-.73,1.07-1.17,1.92-1.32.47-.08.94-.04,1.42.14Z" fill="#3848a0" stroke-width="0"/><path d="M45.28,48.86l-2.22.39-.36,1.36-.84.15,1.59-5.96,3.45,5.07-.86.15-.77-1.16ZM44.83,48.18l-1.08-1.63-.49,1.9,1.58-.28Z" fill="#3848a0" stroke-width="0"/><path d="M47.72,49.72l.11-5.77,2.49,3.72,1.13-4.35,1.96,5.4-.8.14-1.05-3.04-.94,3.64-2.08-3.11v3.23s-.82.14-.82.14Z" fill="#3848a0" stroke-width="0"/><path d="M57.67,46.67l-2.22.39-.36,1.36-.84.15,1.59-5.96,3.45,5.07-.86.15-.77-1.16ZM57.23,45.99l-1.08-1.63-.5,1.9,1.58-.28Z" fill="#3848a0" stroke-width="0"/><path d="M62.26,42.61l-.57.49c-.16-.19-.29-.3-.41-.34-.12-.05-.28-.06-.45-.03-.22.04-.39.13-.51.28-.12.15-.17.31-.13.49.04.25.27.42.67.51l.55.12c.45.1.8.25,1.03.46.24.21.39.5.45.85.08.48,0,.9-.27,1.27-.26.37-.63.6-1.11.68-.45.08-.85.01-1.18-.2-.34-.22-.58-.56-.74-1.03l.76-.31c.09.3.19.5.3.6.2.19.46.27.76.21.24-.04.43-.16.56-.35s.18-.41.13-.66c-.02-.1-.05-.19-.09-.27s-.1-.15-.17-.21c-.07-.06-.16-.11-.26-.16-.11-.04-.23-.08-.37-.12l-.54-.12c-.76-.18-1.19-.55-1.3-1.13-.07-.39.02-.74.27-1.05.25-.32.6-.51,1.04-.59.6-.11,1.11.1,1.55.63Z" fill="#3848a0" stroke-width="0"/><path d="M17.63,94.56c1.87,0,3.62.12,5.25.36,1.63.24,2.8.49,3.51.74l1.03.38v9.79c-1.85-.84-4.38-1.27-7.6-1.27v.89c2.97.23,5.1.82,6.4,1.78,1.3.96,1.95,2.41,1.95,4.35,0,2.33-.95,4.13-2.84,5.41-1.89,1.28-4.81,1.92-8.76,1.92-2.26,0-4.26-.13-5.99-.39-1.73-.26-2.9-.52-3.49-.77l-.92-.41v-8.52c.21.09.51.22.92.38.41.16,1.33.37,2.76.62,1.43.25,2.96.38,4.6.38v-.82c-2.78-.21-4.88-.8-6.3-1.78-1.41-.98-2.12-2.69-2.12-5.13s.97-4.36,2.91-5.77,4.84-2.1,8.69-2.1Z" fill="#3848a0" stroke-width="0"/><path d="M43.29,118.55l-.21-3.66h-2.09l-.2,3.66h-10.78c.23-3.74.7-7.58,1.4-11.51.71-3.93,1.36-6.94,1.95-9.02l.86-3.11h16.22c.25.82.57,1.96.96,3.42.39,1.46.96,4.26,1.71,8.4s1.27,8.08,1.54,11.82h-11.36ZM41.51,106.4l-.27,5.34h1.61l-.24-5.34h-1.09Z" fill="#3848a0" stroke-width="0"/><path d="M68.75,111.64v6.91h-11.77v-23.64h12.42c4.08,0,7.08.67,9,2,1.92,1.33,2.87,3.64,2.87,6.93,0,2.49-.81,4.32-2.43,5.51,1.37,2.44,2.41,5.51,3.11,9.2h-11.26c-.18-2.3-.5-4.33-.96-6.09l-.24-.82h-.75ZM68.75,108.87h.99c.27,0,.5-.09.68-.27s.27-.42.27-.72v-2.05c0-.3-.09-.53-.27-.7-.18-.17-.41-.26-.68-.26h-.99v4Z" fill="#3848a0" stroke-width="0"/><path d="M84.32,94.91h12.35c3.81,0,6.72.91,8.74,2.74s3.03,4.8,3.03,8.93c0,7.98-4.08,11.98-12.25,11.98h-11.87v-23.64ZM95.81,104.86v5.92h.96c.27,0,.51-.09.7-.27.19-.18.29-.42.29-.72v-3.97c0-.27-.1-.5-.29-.68s-.43-.27-.7-.27h-.96Z" fill="#3848a0" stroke-width="0"/><path d="M111.25,118.55v-23.64h11.77v23.64h-11.77Z" fill="#3848a0" stroke-width="0"/><path d="M125.86,94.91h10.47l2.16,7.05v-7.05h10.54v23.64h-10.54l-1.81-6.91v6.91h-10.81v-23.64Z" fill="#3848a0" stroke-width="0"/><path d="M164.62,118.55l-.21-3.66h-2.09l-.2,3.66h-10.78c.23-3.74.7-7.58,1.4-11.51.71-3.93,1.36-6.94,1.95-9.02l.86-3.11h16.22c.25.82.57,1.96.96,3.42.39,1.46.96,4.26,1.71,8.4s1.27,8.08,1.54,11.82h-11.36ZM162.84,106.4l-.27,5.34h1.61l-.24-5.34h-1.09Z" fill="#3848a0" stroke-width="0"/><path d="M189.91,94.56c1.87,0,3.62.12,5.25.36,1.63.24,2.8.49,3.51.74l1.03.38v9.79c-1.85-.84-4.38-1.27-7.6-1.27v.89c2.97.23,5.1.82,6.4,1.78,1.3.96,1.95,2.41,1.95,4.35,0,2.33-.95,4.13-2.84,5.41-1.89,1.28-4.81,1.92-8.76,1.92-2.26,0-4.26-.13-5.99-.39-1.73-.26-2.9-.52-3.49-.77l-.92-.41v-8.52c.21.09.51.22.92.38.41.16,1.33.37,2.76.62,1.43.25,2.96.38,4.6.38v-.82c-2.78-.21-4.88-.8-6.3-1.78-1.41-.98-2.12-2.69-2.12-5.13s.97-4.36,2.91-5.77,4.84-2.1,8.69-2.1Z" fill="#3848a0" stroke-width="0"/><path d="M163.67,77.4v1.71h-.64v-4.21h.72c.35,0,.62.02.8.07.18.05.34.14.48.28.24.24.36.53.36.89,0,.39-.13.69-.39.92-.26.23-.61.34-1.04.34h-.3ZM163.67,76.82h.24c.58,0,.88-.23.88-.67s-.3-.65-.9-.65h-.21v1.33Z" fill="#f5dbc8" stroke-width="0"/><path d="M168.43,75.5h-1.69v1.01h1.64v.6h-1.64v1.41h1.69v.6h-2.32v-4.21h2.32v.6Z" fill="#f5dbc8" stroke-width="0"/><path d="M171.7,75.53l-.52.3c-.1-.17-.19-.28-.28-.33-.09-.06-.21-.09-.35-.09-.18,0-.32.05-.44.15-.12.1-.17.22-.17.37,0,.21.15.37.46.5l.42.17c.34.14.59.31.75.51.16.2.24.44.24.73,0,.39-.13.71-.39.96-.26.26-.58.38-.97.38-.37,0-.67-.11-.91-.32-.23-.22-.38-.52-.44-.91l.64-.14c.03.25.08.42.15.51.13.18.32.27.57.27.2,0,.36-.07.49-.2.13-.13.2-.3.2-.5,0-.08-.01-.16-.03-.23-.02-.07-.06-.13-.11-.19-.05-.06-.11-.11-.19-.16-.08-.05-.17-.1-.27-.14l-.41-.17c-.58-.24-.86-.6-.86-1.07,0-.32.12-.58.36-.79.24-.21.54-.32.9-.32.49,0,.86.24,1.14.71Z" fill="#f5dbc8" stroke-width="0"/><path d="M172.43,76.99c0-.59.22-1.1.65-1.53.43-.43.95-.64,1.56-.64s1.11.21,1.54.64c.43.43.65.94.65,1.55s-.22,1.12-.65,1.54c-.43.42-.96.64-1.57.64-.54,0-1.03-.19-1.47-.56-.48-.42-.72-.96-.72-1.64ZM173.07,77c0,.47.16.85.47,1.15.31.3.67.45,1.08.45.44,0,.81-.15,1.12-.46.3-.31.46-.69.46-1.13s-.15-.83-.45-1.13c-.3-.3-.67-.46-1.11-.46s-.81.15-1.11.46c-.3.3-.45.68-.45,1.12Z" fill="#f5dbc8" stroke-width="0"/><path d="M179.46,79.11v-4.5l3.07,3.21v-2.93h.64v4.47l-3.07-3.21v2.95h-.64Z" fill="#f5dbc8" stroke-width="0"/><path d="M186.56,75.5h-1.69v1.01h1.64v.6h-1.64v1.41h1.69v.6h-2.32v-4.21h2.32v.6Z" fill="#f5dbc8" stroke-width="0"/><path d="M188.61,75.5v3.61h-.64v-3.61h-.97v-.6h2.57v.6h-.97Z" fill="#f5dbc8" stroke-width="0"/><path d="M189.99,76.99c0-.59.22-1.1.65-1.53.43-.43.95-.64,1.56-.64s1.11.21,1.54.64c.43.43.65.94.65,1.55s-.22,1.12-.65,1.54c-.43.42-.96.64-1.57.64-.54,0-1.03-.19-1.47-.56-.48-.42-.72-.96-.72-1.64ZM190.63,77c0,.47.16.85.47,1.15.31.3.67.45,1.08.45.44,0,.81-.15,1.12-.46.3-.31.46-.69.46-1.13s-.15-.83-.45-1.13c-.3-.3-.67-.46-1.11-.46s-.81.15-1.11.46c-.3.3-.45.68-.45,1.12Z" fill="#f5dbc8" stroke-width="0"/><path d="M185.31,83.21c-.31-.22-.46-.52-.46-.89,0-.34.12-.63.35-.86.24-.23.53-.34.88-.34s.64.11.87.34c.23.23.35.51.35.86s-.15.66-.46.89c.17.09.3.22.4.4.1.17.15.37.15.59,0,.37-.12.68-.37.92-.24.24-.56.36-.94.36s-.71-.12-.96-.36c-.26-.24-.38-.54-.38-.91,0-.47.19-.8.57-.99ZM185.36,84.18c0,.19.07.36.2.5.14.14.3.21.5.21s.36-.07.49-.2c.14-.14.2-.3.2-.5s-.07-.36-.2-.5-.3-.2-.49-.2-.36.07-.49.2c-.14.14-.2.3-.2.49ZM185.44,82.31c0,.18.06.33.18.45s.27.19.45.19.32-.06.44-.19.19-.27.19-.44-.06-.32-.19-.45-.27-.19-.44-.19-.32.06-.45.19-.19.27-.19.44Z" fill="#f5dbc8" stroke-width="0"/><path d="M190.03,81.04l.47.35-1.01,1.37c.05,0,.1-.01.14-.02.04,0,.07,0,.09,0,.34,0,.64.13.89.39.25.26.37.57.37.93,0,.39-.14.72-.42.99s-.6.41-.99.41-.72-.14-1-.41c-.28-.27-.42-.59-.42-.96,0-.33.14-.68.41-1.06l1.47-2ZM190.36,84.1c0-.22-.08-.41-.23-.57-.16-.16-.34-.23-.56-.23s-.41.08-.57.23c-.15.15-.23.34-.23.56s.08.41.23.56c.15.15.34.23.57.23s.41-.08.56-.23c.16-.16.23-.34.23-.55Z" fill="#f5dbc8" stroke-width="0"/><path d="M194.3,85.34c0,.12,0,.24-.01.33,0,.1-.02.18-.03.25-.04.2-.13.37-.26.52-.24.28-.57.42-.99.42-.35,0-.65-.1-.88-.29-.24-.2-.37-.47-.41-.82h.62c.02.13.06.23.12.3.13.17.31.25.56.25.45,0,.67-.28.67-.83v-.37c-.24.25-.52.37-.84.37-.36,0-.66-.13-.89-.39-.23-.26-.35-.6-.35-1s.11-.72.32-.99c.23-.29.54-.43.92-.43.34,0,.61.12.83.37v-.3h.61v2.59ZM193.71,84.08c0-.26-.07-.46-.21-.62-.14-.16-.32-.24-.54-.24-.23,0-.42.09-.55.26-.12.15-.18.35-.18.6s.06.44.18.59c.13.17.32.25.55.25s.42-.09.56-.26c.13-.15.19-.35.19-.59Z" fill="#f5dbc8" stroke-width="0"/><line x1="27.45" y1="36.36" x2="35.87" y2="34.87" fill="none" stroke="#3848a0" stroke-miterlimit="10" stroke-width=".7"/><line x1="50.16" y1="32.35" x2="58.58" y2="30.87" fill="none" stroke="#3848a0" stroke-miterlimit="10" stroke-width=".7"/></svg>