<?xml version="1.0" encoding="UTF-8"?><svg id="Layer_1" xmlns="http://www.w3.org/2000/svg" xmlns:xlink="http://www.w3.org/1999/xlink" viewBox="0 0 206 125"><defs><clipPath id="clippath"><rect x="5.24" y="4.26" width="195.53" height="85.54" fill="none" stroke-width="0"/></clipPath></defs><rect width="206" height="125" fill="#f5dbc8" stroke-width="0"/><rect x="5.24" y="4.26" width="195.53" height="85.54" fill="#4aafaf" stroke-width="0"/><g clip-path="url(#clippath)"><path d="M128.06,36c-4.11-2.22-8.99-7-11.13-11.14,3.46,1.96,6.91,3.91,10.37,5.87,1.22.69,2.46,1.39,3.81,1.75,1.72.46,3.54.36,5.32.25,10.76-.65,21.79-1.37,32.12,1.73.63.19,1.33.46,1.58,1.06.39.92-.51,1.85-1.33,2.42-9.52,6.54-22.42,6.52-33.27,2.53-.83-.31-1.7-.64-2.58-.54-.79.09-1.49.51-2.17.92-2.92,1.77-5.84,3.53-8.75,5.3.83-3.92,3-7.55,6.05-10.15" fill="#3848a0" stroke-width="0"/><path d="M128.32,35.55c-4.45-2.46-8.56-6.46-10.94-10.95l-.72.72c3.45,1.96,6.91,3.92,10.37,5.87,1.26.71,2.53,1.43,3.94,1.8,1.63.44,3.34.39,5.01.3,7.34-.4,14.7-.95,22.04-.27,1.81.17,3.61.41,5.4.75.92.17,1.83.37,2.73.59s2.35.36,3.06.94c1.68,1.37-2.59,3.42-3.39,3.84-1.47.78-3,1.42-4.58,1.93-6.12,1.99-12.76,2.05-19.03.77-1.71-.35-3.39-.8-5.04-1.34-1.51-.5-3.13-1.4-4.76-1-1.73.42-3.33,1.76-4.83,2.67-1.95,1.18-3.89,2.36-5.84,3.53l.77.59c.87-3.88,2.92-7.3,5.92-9.92.51-.44-.23-1.18-.74-.74-3.13,2.72-5.28,6.34-6.19,10.38-.1.43.36.84.77.59,1.74-1.05,3.47-2.1,5.21-3.15.83-.5,1.67-1.01,2.5-1.51s1.74-1.2,2.7-1.43c1.05-.24,2.1.27,3.07.61.82.29,1.64.56,2.47.81,1.61.47,3.24.86,4.89,1.15,6.34,1.12,13.03.91,19.14-1.25,1.46-.52,2.89-1.14,4.26-1.88,1.23-.66,2.72-1.4,3.61-2.51,2.47-3.07-2.97-3.95-4.84-4.36-7.54-1.67-15.33-1.6-23-1.21-4.24.21-9.11,1.28-13.06-.69s-8.04-4.52-12.03-6.78c-.47-.26-.96.26-.72.72,2.47,4.65,6.72,8.79,11.32,11.33.59.33,1.12-.58.53-.9h0Z" fill="#3848a0" stroke-width="0"/><path d="M131.05,58.54c4.11,2.22,8.99,7,11.13,11.14-3.46-1.96-6.91-3.91-10.37-5.87-1.22-.69-2.46-1.39-3.81-1.75-1.72-.46-3.54-.36-5.32-.25-10.76.65-21.79,1.37-32.12-1.73-.63-.19-1.33-.46-1.58-1.06-.39-.92.51-1.85,1.33-2.42,9.52-6.54,22.42-6.52,33.27-2.53.83.31,1.7.64,2.58.54.79-.09,1.49-.51,2.17-.92,2.92-1.77,5.84-3.53,8.75-5.3-.83,3.92-3,7.55-6.05,10.15" fill="#3848a0" stroke-width="0"/><path d="M130.78,58.99c4.45,2.46,8.56,6.46,10.94,10.95l.72-.72c-3.45-1.96-6.91-3.92-10.37-5.87-1.26-.71-2.53-1.43-3.94-1.8-1.63-.44-3.34-.39-5.01-.3-7.34.4-14.7.95-22.04.27-1.81-.17-3.61-.41-5.4-.75-.92-.17-1.83-.37-2.73-.59s-2.35-.36-3.06-.94c-1.68-1.37,2.59-3.42,3.39-3.84,1.47-.78,3-1.42,4.58-1.93,6.12-1.99,12.76-2.05,19.03-.77,1.71.35,3.39.8,5.04,1.34,1.51.5,3.13,1.4,4.76,1,1.73-.42,3.33-1.76,4.83-2.67,1.95-1.18,3.89-2.36,5.84-3.53l-.77-.59c-.87,3.88-2.92,7.3-5.92,9.92-.51.44.23,1.18.74.74,3.13-2.72,5.28-6.34,6.19-10.38.1-.43-.36-.84-.77-.59-1.74,1.05-3.47,2.1-5.21,3.15-.83.5-1.67,1.01-2.5,1.51s-1.74,1.2-2.7,1.43c-1.05.24-2.1-.27-3.07-.61-.82-.29-1.64-.56-2.47-.81-1.61-.47-3.24-.86-4.89-1.15-6.34-1.12-13.03-.91-19.14,1.25-1.46.52-2.89,1.14-4.26,1.88-1.23.66-2.72,1.4-3.61,2.51-2.47,3.07,2.97,3.95,4.84,4.36,7.54,1.67,15.33,1.6,23,1.21,4.24-.21,9.11-1.28,13.06.69s8.04,4.52,12.03,6.78c.47.26.96-.26.72-.72-2.47-4.65-6.72-8.79-11.32-11.33-.59-.33-1.12.58-.53.9h0Z" fill="#3848a0" stroke-width="0"/><path d="M125.98,76.97c-4.11-2.22-8.99-7-11.13-11.14,3.46,1.96,6.91,3.91,10.37,5.87,1.22.69,2.46,1.39,3.81,1.75,1.72.46,3.54.36,5.32.25,10.76-.65,21.79-1.37,32.12,1.73.63.19,1.33.46,1.58,1.06.39.92-.51,1.85-1.33,2.42-9.52,6.54-22.42,6.52-33.27,2.53-.83-.31-1.7-.64-2.58-.54-.79.09-1.49.51-2.17.92-2.92,1.77-5.84,3.53-8.75,5.3.83-3.92,3-7.55,6.05-10.15" fill="#3848a0" stroke-width="0"/><path d="M126.24,76.52c-4.45-2.46-8.56-6.46-10.94-10.95l-.72.72c3.45,1.96,6.91,3.92,10.37,5.87,1.26.71,2.53,1.43,3.94,1.8,1.63.44,3.34.39,5.01.3,7.34-.4,14.7-.95,22.04-.27,1.81.17,3.61.41,5.4.75.92.17,1.83.37,2.73.59s2.35.36,3.06.94c1.68,1.37-2.59,3.42-3.39,3.84-1.47.78-3,1.42-4.58,1.93-6.12,1.99-12.76,2.05-19.03.77-1.71-.35-3.39-.8-5.04-1.34-1.51-.5-3.13-1.4-4.76-1-1.73.42-3.33,1.76-4.83,2.67-1.95,1.18-3.89,2.36-5.84,3.53l.77.59c.87-3.88,2.92-7.3,5.92-9.92.51-.44-.23-1.18-.74-.74-3.13,2.72-5.28,6.34-6.19,10.38-.1.43.36.84.77.59,1.74-1.05,3.47-2.1,5.21-3.15.83-.5,1.67-1.01,2.5-1.51s1.74-1.2,2.7-1.43c1.05-.24,2.1.27,3.07.61.82.29,1.64.56,2.47.81,1.61.47,3.24.86,4.89,1.15,6.34,1.12,13.03.91,19.14-1.25,1.46-.52,2.89-1.14,4.26-1.88,1.23-.66,2.72-1.4,3.61-2.51,2.47-3.07-2.97-3.95-4.84-4.36-7.54-1.67-15.33-1.6-23-1.21-4.24.21-9.11,1.28-13.06-.69s-8.04-4.52-12.03-6.78c-.47-.26-.96.26-.72.72,2.47,4.65,6.72,8.79,11.32,11.33.59.33,1.12-.58.53-.9h0Z" fill="#3848a0" stroke-width="0"/><path d="M76.05,36c-4.11-2.22-8.99-7-11.13-11.14,3.46,1.96,6.91,3.91,10.37,5.87,1.22.69,2.46,1.39,3.81,1.75,1.72.46,3.54.36,5.32.25,10.76-.65,21.79-1.37,32.12,1.73.63.19,1.33.46,1.58,1.06.39.92-.51,1.85-1.33,2.42-9.52,6.54-22.42,6.52-33.27,2.53-.83-.31-1.7-.64-2.58-.54-.79.09-1.49.51-2.17.92-2.92,1.77-5.84,3.53-8.75,5.3.83-3.92,3-7.55,6.05-10.15" fill="#3848a0" stroke-width="0"/><path d="M76.31,35.55c-4.45-2.46-8.56-6.46-10.94-10.95l-.72.72c3.45,1.96,6.91,3.92,10.37,5.87,1.26.71,2.53,1.43,3.94,1.8,1.63.44,3.34.39,5.01.3,7.34-.4,14.7-.95,22.04-.27,1.81.17,3.61.41,5.4.75.92.17,1.83.37,2.73.59s2.35.36,3.06.94c1.68,1.37-2.59,3.42-3.39,3.84-1.47.78-3,1.42-4.58,1.93-6.12,1.99-12.76,2.05-19.03.77-1.71-.35-3.39-.8-5.04-1.34-1.51-.5-3.13-1.4-4.76-1-1.73.42-3.33,1.76-4.83,2.67-1.95,1.18-3.89,2.36-5.84,3.53l.77.59c.87-3.88,2.92-7.3,5.92-9.92.51-.44-.23-1.18-.74-.74-3.13,2.72-5.28,6.34-6.19,10.38-.1.43.36.84.77.59,1.74-1.05,3.47-2.1,5.21-3.15.83-.5,1.67-1.01,2.5-1.51s1.74-1.2,2.7-1.43c1.05-.24,2.1.27,3.07.61.82.29,1.64.56,2.47.81,1.61.47,3.24.86,4.89,1.15,6.34,1.12,13.03.91,19.14-1.25,1.46-.52,2.89-1.14,4.26-1.88,1.23-.66,2.72-1.4,3.61-2.51,2.47-3.07-2.97-3.95-4.84-4.36-7.54-1.67-15.33-1.6-23-1.21-4.24.21-9.11,1.28-13.06-.69s-8.04-4.52-12.03-6.78c-.47-.26-.96.26-.72.72,2.47,4.65,6.72,8.79,11.32,11.33.59.33,1.12-.58.53-.9h0Z" fill="#3848a0" stroke-width="0"/><path d="M79.04,58.54c4.11,2.22,8.99,7,11.13,11.14-3.46-1.96-6.91-3.91-10.37-5.87-1.22-.69-2.46-1.39-3.81-1.75-1.72-.46-3.54-.36-5.32-.25-10.76.65-21.79,1.37-32.12-1.73-.63-.19-1.33-.46-1.58-1.06-.39-.92.51-1.85,1.33-2.42,9.52-6.54,22.42-6.52,33.27-2.53.83.31,1.7.64,2.58.54.79-.09,1.49-.51,2.17-.92,2.92-1.77,5.84-3.53,8.75-5.3-.83,3.92-3,7.55-6.05,10.15" fill="#3848a0" stroke-width="0"/><path d="M78.78,58.99c4.45,2.46,8.56,6.46,10.94,10.95l.72-.72c-3.45-1.96-6.91-3.92-10.37-5.87-1.26-.71-2.53-1.43-3.94-1.8-1.63-.44-3.34-.39-5.01-.3-7.34.4-14.7.95-22.04.27-1.81-.17-3.61-.41-5.4-.75-.92-.17-1.83-.37-2.73-.59s-2.35-.36-3.06-.94c-1.68-1.37,2.59-3.42,3.39-3.84,1.47-.78,3-1.42,4.58-1.93,6.12-1.99,12.76-2.05,19.03-.77,1.71.35,3.39.8,5.04,1.34,1.51.5,3.13,1.4,4.76,1,1.73-.42,3.33-1.76,4.83-2.67,1.95-1.18,3.89-2.36,5.84-3.53l-.77-.59c-.87,3.88-2.92,7.3-5.92,9.92-.51.44.23,1.18.74.74,3.13-2.72,5.28-6.34,6.19-10.38.1-.43-.36-.84-.77-.59-1.74,1.05-3.47,2.1-5.21,3.15-.83.5-1.67,1.01-2.5,1.51s-1.74,1.2-2.7,1.43c-1.05.24-2.1-.27-3.07-.61-.82-.29-1.64-.56-2.47-.81-1.61-.47-3.24-.86-4.89-1.15-6.34-1.12-13.03-.91-19.14,1.25-1.46.52-2.89,1.14-4.26,1.88-1.23.66-2.72,1.4-3.61,2.51-2.47,3.07,2.97,3.95,4.84,4.36,7.54,1.67,15.33,1.6,23,1.21,4.24-.21,9.11-1.28,13.06.69s8.04,4.52,12.03,6.78c.47.26.96-.26.72-.72-2.47-4.65-6.72-8.79-11.32-11.33-.59-.33-1.12.58-.53.9h0Z" fill="#3848a0" stroke-width="0"/><path d="M79.04,16.96c4.11,2.22,8.99,7,11.13,11.14-3.46-1.96-6.91-3.91-10.37-5.87-1.22-.69-2.46-1.39-3.81-1.75-1.72-.46-3.54-.36-5.32-.25-10.76.65-21.79,1.37-32.12-1.73-.63-.19-1.33-.46-1.58-1.06-.39-.92.51-1.85,1.33-2.42,9.52-6.54,22.42-6.52,33.27-2.53.83.31,1.7.64,2.58.54.79-.09,1.49-.51,2.17-.92,2.92-1.77,5.84-3.53,8.75-5.3-.83,3.92-3,7.55-6.05,10.15" fill="#3848a0" stroke-width="0"/><path d="M78.78,17.41c4.45,2.46,8.56,6.46,10.94,10.95l.72-.72c-3.45-1.96-6.91-3.92-10.37-5.87-1.26-.71-2.53-1.43-3.94-1.8-1.63-.44-3.34-.39-5.01-.3-7.34.4-14.7.95-22.04.27-1.81-.17-3.61-.41-5.4-.75-.92-.17-1.83-.37-2.73-.59s-2.35-.36-3.06-.94c-1.68-1.37,2.59-3.42,3.39-3.84,1.47-.78,3-1.42,4.58-1.93,6.12-1.99,12.76-2.05,19.03-.77,1.71.35,3.39.8,5.04,1.34,1.51.5,3.13,1.4,4.76,1,1.73-.42,3.33-1.76,4.83-2.67,1.95-1.18,3.89-2.36,5.84-3.53l-.77-.59c-.87,3.88-2.92,7.3-5.92,9.92-.51.44.23,1.18.74.74,3.13-2.72,5.28-6.34,6.19-10.38.1-.43-.36-.84-.77-.59-1.74,1.05-3.47,2.1-5.21,3.15-.83.5-1.67,1.01-2.5,1.51s-1.74,1.2-2.7,1.43c-1.05.24-2.1-.27-3.07-.61-.82-.29-1.64-.56-2.47-.81-1.61-.47-3.24-.86-4.89-1.15-6.34-1.12-13.03-.91-19.14,1.25-1.46.52-2.89,1.14-4.26,1.88-1.23.66-2.72,1.4-3.61,2.51-2.47,3.07,2.97,3.95,4.84,4.36,7.54,1.67,15.33,1.6,23,1.21,4.24-.21,9.11-1.28,13.06.69s8.04,4.52,12.03,6.78c.47.26.96-.26.72-.72-2.47-4.65-6.72-8.79-11.32-11.33-.59-.33-1.12.58-.53.9h0Z" fill="#3848a0" stroke-width="0"/><path d="M73.97,76.97c-4.11-2.22-8.99-7-11.13-11.14,3.46,1.96,6.91,3.91,10.37,5.87,1.22.69,2.46,1.39,3.81,1.75,1.72.46,3.54.36,5.32.25,10.76-.65,21.79-1.37,32.12,1.73.63.19,1.33.46,1.58,1.06.39.92-.51,1.85-1.33,2.42-9.52,6.54-22.42,6.52-33.27,2.53-.83-.31-1.7-.64-2.58-.54-.79.09-1.49.51-2.17.92-2.92,1.77-5.84,3.53-8.75,5.3.83-3.92,3-7.55,6.05-10.15" fill="#3848a0" stroke-width="0"/><path d="M74.24,76.52c-4.45-2.46-8.56-6.46-10.94-10.95l-.72.72c3.45,1.96,6.91,3.92,10.37,5.87,1.26.71,2.53,1.43,3.94,1.8,1.63.44,3.34.39,5.01.3,7.34-.4,14.7-.95,22.04-.27,1.81.17,3.61.41,5.4.75.92.17,1.83.37,2.73.59s2.35.36,3.06.94c1.68,1.37-2.59,3.42-3.39,3.84-1.47.78-3,1.42-4.58,1.93-6.12,1.99-12.76,2.05-19.03.77-1.71-.35-3.39-.8-5.04-1.34-1.51-.5-3.13-1.4-4.76-1-1.73.42-3.33,1.76-4.83,2.67-1.95,1.18-3.89,2.36-5.84,3.53l.77.59c.87-3.88,2.92-7.3,5.92-9.92.51-.44-.23-1.18-.74-.74-3.13,2.72-5.28,6.34-6.19,10.38-.1.43.36.84.77.59,1.74-1.05,3.47-2.1,5.21-3.15.83-.5,1.67-1.01,2.5-1.51s1.74-1.2,2.7-1.43c1.05-.24,2.1.27,3.07.61.82.29,1.64.56,2.47.81,1.61.47,3.24.86,4.89,1.15,6.34,1.12,13.03.91,19.14-1.25,1.46-.52,2.89-1.14,4.26-1.88,1.23-.66,2.72-1.4,3.61-2.51,2.47-3.07-2.97-3.95-4.84-4.36-7.54-1.67-15.33-1.6-23-1.21-4.24.21-9.11,1.28-13.06-.69s-8.04-4.52-12.03-6.78c-.47-.26-.96.26-.72.72,2.47,4.65,6.72,8.79,11.32,11.33.59.33,1.12-.58.53-.9h0Z" fill="#3848a0" stroke-width="0"/><path d="M22.46,36c-4.11-2.22-8.99-7-11.13-11.14,3.46,1.96,6.91,3.91,10.37,5.87,1.22.69,2.46,1.39,3.81,1.75,1.72.46,3.54.36,5.32.25,10.76-.65,21.79-1.37,32.12,1.73.63.19,1.33.46,1.58,1.06.39.92-.51,1.85-1.33,2.42-9.52,6.54-22.42,6.52-33.27,2.53-.83-.31-1.7-.64-2.58-.54-.79.09-1.49.51-2.17.92-2.92,1.77-5.84,3.53-8.75,5.3.83-3.92,3-7.55,6.05-10.15" fill="#3848a0" stroke-width="0"/><path d="M22.72,35.55c-4.45-2.46-8.56-6.46-10.94-10.95l-.72.72c3.45,1.96,6.91,3.92,10.37,5.87,1.26.71,2.53,1.43,3.94,1.8,1.63.44,3.34.39,5.01.3,7.34-.4,14.7-.95,22.04-.27,1.81.17,3.61.41,5.4.75.92.17,1.83.37,2.73.59s2.35.36,3.06.94c1.68,1.37-2.59,3.42-3.39,3.84-1.47.78-3,1.42-4.58,1.93-6.12,1.99-12.76,2.05-19.03.77-1.71-.35-3.39-.8-5.04-1.34-1.51-.5-3.13-1.4-4.76-1-1.73.42-3.33,1.76-4.83,2.67-1.95,1.18-3.89,2.36-5.84,3.53l.77.59c.87-3.88,2.92-7.3,5.92-9.92.51-.44-.23-1.18-.74-.74-3.13,2.72-5.28,6.34-6.19,10.38-.1.43.36.84.77.59,1.74-1.05,3.47-2.1,5.21-3.15.83-.5,1.67-1.01,2.5-1.51s1.74-1.2,2.7-1.43c1.05-.24,2.1.27,3.07.61.82.29,1.64.56,2.47.81,1.61.47,3.24.86,4.89,1.15,6.34,1.12,13.03.91,19.14-1.25,1.46-.52,2.89-1.14,4.26-1.88,1.23-.66,2.72-1.4,3.61-2.51,2.47-3.07-2.97-3.95-4.84-4.36-7.54-1.67-15.33-1.6-23-1.21-4.24.21-9.11,1.28-13.06-.69s-8.04-4.52-12.03-6.78c-.47-.26-.96.26-.72.72,2.47,4.65,6.72,8.79,11.32,11.33.59.33,1.12-.58.53-.9h0Z" fill="#3848a0" stroke-width="0"/><path d="M25.45,58.54c4.11,2.22,8.99,7,11.13,11.14-3.46-1.96-6.91-3.91-10.37-5.87-1.22-.69-2.46-1.39-3.81-1.75-1.72-.46-3.54-.36-5.32-.25-10.76.65-21.79,1.37-32.12-1.73-.63-.19-1.33-.46-1.58-1.06-.39-.92.51-1.85,1.33-2.42,9.52-6.54,22.42-6.52,33.27-2.53.83.31,1.7.64,2.58.54.79-.09,1.49-.51,2.17-.92,2.92-1.77,5.84-3.53,8.75-5.3-.83,3.92-3,7.55-6.05,10.15" fill="#3848a0" stroke-width="0"/><path d="M25.19,58.99c4.45,2.46,8.56,6.46,10.94,10.95l.72-.72c-3.45-1.96-6.91-3.92-10.37-5.87-1.26-.71-2.53-1.43-3.94-1.8-1.63-.44-3.34-.39-5.01-.3-7.34.4-14.7.95-22.04.27-1.81-.17-3.61-.41-5.4-.75-.92-.17-1.83-.37-2.73-.59s-2.35-.36-3.06-.94c-1.68-1.37,2.59-3.42,3.39-3.84,1.47-.78,3-1.42,4.58-1.93,6.12-1.99,12.76-2.05,19.03-.77,1.71.35,3.39.8,5.04,1.34,1.51.5,3.13,1.4,4.76,1,1.73-.42,3.33-1.76,4.83-2.67,1.95-1.18,3.89-2.36,5.84-3.53l-.77-.59c-.87,3.88-2.92,7.3-5.92,9.92-.51.44.23,1.18.74.74,3.13-2.72,5.28-6.34,6.19-10.38.1-.43-.36-.84-.77-.59-1.74,1.05-3.47,2.1-5.21,3.15-.83.5-1.67,1.01-2.5,1.51s-1.74,1.2-2.7,1.43c-1.05.24-2.1-.27-3.07-.61-.82-.29-1.64-.56-2.47-.81-1.61-.47-3.24-.86-4.89-1.15-6.34-1.12-13.03-.91-19.14,1.25-1.46.52-2.89,1.14-4.26,1.88-1.23.66-2.72,1.4-3.61,2.51-2.47,3.07,2.97,3.95,4.84,4.36,7.54,1.67,15.33,1.6,23,1.21,4.24-.21,9.11-1.28,13.06.69s8.04,4.52,12.03,6.78c.47.26.96-.26.72-.72-2.47-4.65-6.72-8.79-11.32-11.33-.59-.33-1.12.58-.53.9h0Z" fill="#3848a0" stroke-width="0"/><path d="M20.38,76.97c-4.11-2.22-8.99-7-11.13-11.14,3.46,1.96,6.91,3.91,10.37,5.87,1.22.69,2.46,1.39,3.81,1.75,1.72.46,3.54.36,5.32.25,10.76-.65,21.79-1.37,32.12,1.73.63.19,1.33.46,1.58,1.06.39.92-.51,1.85-1.33,2.42-9.52,6.54-22.42,6.52-33.27,2.53-.83-.31-1.7-.64-2.58-.54-.79.09-1.49.51-2.17.92-2.92,1.77-5.84,3.53-8.75,5.3.83-3.92,3-7.55,6.05-10.15" fill="#3848a0" stroke-width="0"/><path d="M20.65,76.52c-4.45-2.46-8.56-6.46-10.94-10.95l-.72.72c3.45,1.96,6.91,3.92,10.37,5.87,1.26.71,2.53,1.43,3.94,1.8,1.63.44,3.34.39,5.01.3,7.34-.4,14.7-.95,22.04-.27,1.81.17,3.61.41,5.4.75.92.17,1.83.37,2.73.59s2.35.36,3.06.94c1.68,1.37-2.59,3.42-3.39,3.84-1.47.78-3,1.42-4.58,1.93-6.12,1.99-12.76,2.05-19.03.77-1.71-.35-3.39-.8-5.04-1.34-1.51-.5-3.13-1.4-4.76-1-1.73.42-3.33,1.76-4.83,2.67-1.95,1.18-3.89,2.36-5.84,3.53l.77.59c.87-3.88,2.92-7.3,5.92-9.92.51-.44-.23-1.18-.74-.74-3.13,2.72-5.28,6.34-6.19,10.38-.1.43.36.84.77.59,1.74-1.05,3.47-2.1,5.21-3.15.83-.5,1.67-1.01,2.5-1.51s1.74-1.2,2.7-1.43c1.05-.24,2.1.27,3.07.61.82.29,1.64.56,2.47.81,1.61.47,3.24.86,4.89,1.15,6.34,1.12,13.03.91,19.14-1.25,1.46-.52,2.89-1.14,4.26-1.88,1.23-.66,2.72-1.4,3.61-2.51,2.47-3.07-2.97-3.95-4.84-4.36-7.54-1.67-15.33-1.6-23-1.21-4.24.21-9.11,1.28-13.06-.69s-8.04-4.52-12.03-6.78c-.47-.26-.96.26-.72.72,2.47,4.65,6.72,8.79,11.32,11.33.59.33,1.12-.58.53-.9h0Z" fill="#3848a0" stroke-width="0"/><path d="M179.96,36c-4.11-2.22-8.99-7-11.13-11.14,3.46,1.96,6.91,3.91,10.37,5.87,1.22.69,2.46,1.39,3.81,1.75,1.72.46,3.54.36,5.32.25,10.76-.65,21.79-1.37,32.12,1.73.63.19,1.33.46,1.58,1.06.39.92-.51,1.85-1.33,2.42-9.52,6.54-22.42,6.52-33.27,2.53-.83-.31-1.7-.64-2.58-.54-.79.09-1.49.51-2.17.92-2.92,1.77-5.84,3.53-8.75,5.3.83-3.92,3-7.55,6.05-10.15" fill="#3848a0" stroke-width="0"/><path d="M180.23,35.55c-4.45-2.46-8.56-6.46-10.94-10.95l-.72.72c3.45,1.96,6.91,3.92,10.37,5.87,1.26.71,2.53,1.43,3.94,1.8,1.63.44,3.34.39,5.01.3,7.34-.4,14.7-.95,22.04-.27,1.81.17,3.61.41,5.4.75.92.17,1.83.37,2.73.59s2.35.36,3.06.94c1.68,1.37-2.59,3.42-3.39,3.84-1.47.78-3,1.42-4.58,1.93-6.12,1.99-12.76,2.05-19.03.77-1.71-.35-3.39-.8-5.04-1.34-1.51-.5-3.13-1.4-4.76-1-1.73.42-3.33,1.76-4.83,2.67-1.95,1.18-3.89,2.36-5.84,3.53l.77.59c.87-3.88,2.92-7.3,5.92-9.92.51-.44-.23-1.18-.74-.74-3.13,2.72-5.28,6.34-6.19,10.38-.1.43.36.84.77.59,1.74-1.05,3.47-2.1,5.21-3.15.83-.5,1.67-1.01,2.5-1.51s1.74-1.2,2.7-1.43c1.05-.24,2.1.27,3.07.61.82.29,1.64.56,2.47.81,1.61.47,3.24.86,4.89,1.15,6.34,1.12,13.03.91,19.14-1.25,1.46-.52,2.89-1.14,4.26-1.88,1.23-.66,2.72-1.4,3.61-2.51,2.47-3.07-2.97-3.95-4.84-4.36-7.54-1.67-15.33-1.6-23-1.21-4.24.21-9.11,1.28-13.06-.69s-8.04-4.52-12.03-6.78c-.47-.26-.96.26-.72.72,2.47,4.65,6.72,8.79,11.32,11.33.59.33,1.12-.58.53-.9h0Z" fill="#3848a0" stroke-width="0"/><path d="M182.96,58.54c4.11,2.22,8.99,7,11.13,11.14-3.46-1.96-6.91-3.91-10.37-5.87-1.22-.69-2.46-1.39-3.81-1.75-1.72-.46-3.54-.36-5.32-.25-10.76.65-21.79,1.37-32.12-1.73-.63-.19-1.33-.46-1.58-1.06-.39-.92.51-1.85,1.33-2.42,9.52-6.54,22.42-6.52,33.27-2.53.83.31,1.7.64,2.58.54.79-.09,1.49-.51,2.17-.92,2.92-1.77,5.84-3.53,8.75-5.3-.83,3.92-3,7.55-6.05,10.15" fill="#3848a0" stroke-width="0"/><path d="M182.69,58.99c4.45,2.46,8.56,6.46,10.94,10.95l.72-.72c-3.45-1.96-6.91-3.92-10.37-5.87-1.26-.71-2.53-1.43-3.94-1.8-1.63-.44-3.34-.39-5.01-.3-7.34.4-14.7.95-22.04.27-1.81-.17-3.61-.41-5.4-.75-.92-.17-1.83-.37-2.73-.59s-2.35-.36-3.06-.94c-1.68-1.37,2.59-3.42,3.39-3.84,1.47-.78,3-1.42,4.58-1.93,6.12-1.99,12.76-2.05,19.03-.77,1.71.35,3.39.8,5.04,1.34,1.51.5,3.13,1.4,4.76,1,1.73-.42,3.33-1.76,4.83-2.67,1.95-1.18,3.89-2.36,5.84-3.53l-.77-.59c-.87,3.88-2.92,7.3-5.92,9.92-.51.44.23,1.18.74.74,3.13-2.72,5.28-6.34,6.19-10.38.1-.43-.36-.84-.77-.59-1.74,1.05-3.47,2.1-5.21,3.15-.83.5-1.67,1.01-2.5,1.51s-1.74,1.2-2.7,1.43c-1.05.24-2.1-.27-3.07-.61-.82-.29-1.64-.56-2.47-.81-1.61-.47-3.24-.86-4.89-1.15-6.34-1.12-13.03-.91-19.14,1.25-1.46.52-2.89,1.14-4.26,1.88-1.23.66-2.72,1.4-3.61,2.51-2.47,3.07,2.97,3.95,4.84,4.36,7.54,1.67,15.33,1.6,23,1.21,4.24-.21,9.11-1.28,13.06.69s8.04,4.52,12.03,6.78c.47.26.96-.26.72-.72-2.47-4.65-6.72-8.79-11.32-11.33-.59-.33-1.12.58-.53.9h0Z" fill="#3848a0" stroke-width="0"/><path d="M131.05,16.96c4.11,2.22,8.99,7,11.13,11.14-3.46-1.96-6.91-3.91-10.37-5.87-1.22-.69-2.46-1.39-3.81-1.75-1.72-.46-3.54-.36-5.32-.25-10.76.65-21.79,1.37-32.12-1.73-.63-.19-1.33-.46-1.58-1.06-.39-.92.51-1.85,1.33-2.42,9.52-6.54,22.42-6.52,33.27-2.53.83.31,1.7.64,2.58.54.79-.09,1.49-.51,2.17-.92,2.92-1.77,5.84-3.53,8.75-5.3-.83,3.92-3,7.55-6.05,10.15" fill="#3848a0" stroke-width="0"/><path d="M130.78,17.41c4.45,2.46,8.56,6.46,10.94,10.95l.72-.72c-3.45-1.96-6.91-3.92-10.37-5.87-1.26-.71-2.53-1.43-3.94-1.8-1.63-.44-3.34-.39-5.01-.3-7.34.4-14.7.95-22.04.27-1.81-.17-3.61-.41-5.4-.75-.92-.17-1.83-.37-2.73-.59s-2.35-.36-3.06-.94c-1.68-1.37,2.59-3.42,3.39-3.84,1.47-.78,3-1.42,4.58-1.93,6.12-1.99,12.76-2.05,19.03-.77,1.71.35,3.39.8,5.04,1.34,1.51.5,3.13,1.4,4.76,1,1.73-.42,3.33-1.76,4.83-2.67,1.95-1.18,3.89-2.36,5.84-3.53l-.77-.59c-.87,3.88-2.92,7.3-5.92,9.92-.51.44.23,1.18.74.74,3.13-2.72,5.28-6.34,6.19-10.38.1-.43-.36-.84-.77-.59-1.74,1.05-3.47,2.1-5.21,3.15-.83.5-1.67,1.01-2.5,1.51s-1.74,1.2-2.7,1.43c-1.05.24-2.1-.27-3.07-.61-.82-.29-1.64-.56-2.47-.81-1.61-.47-3.24-.86-4.89-1.15-6.34-1.12-13.03-.91-19.14,1.25-1.46.52-2.89,1.14-4.26,1.88-1.23.66-2.72,1.4-3.61,2.51-2.47,3.07,2.97,3.95,4.84,4.36,7.54,1.67,15.33,1.6,23,1.21,4.24-.21,9.11-1.28,13.06.69s8.04,4.52,12.03,6.78c.47.26.96-.26.72-.72-2.47-4.65-6.72-8.79-11.32-11.33-.59-.33-1.12.58-.53.9h0Z" fill="#3848a0" stroke-width="0"/><path d="M25.45,16.96c4.11,2.22,8.99,7,11.13,11.14-3.46-1.96-6.91-3.91-10.37-5.87-1.22-.69-2.46-1.39-3.81-1.75-1.72-.46-3.54-.36-5.32-.25-10.76.65-21.79,1.37-32.12-1.73-.63-.19-1.33-.46-1.58-1.06-.39-.92.51-1.85,1.33-2.42,9.52-6.54,22.42-6.52,33.27-2.53.83.31,1.7.64,2.58.54.79-.09,1.49-.51,2.17-.92,2.92-1.77,5.84-3.53,8.75-5.3-.83,3.92-3,7.55-6.05,10.15" fill="#3848a0" stroke-width="0"/><path d="M25.19,17.41c4.45,2.46,8.56,6.46,10.94,10.95l.72-.72c-3.45-1.96-6.91-3.92-10.37-5.87-1.26-.71-2.53-1.43-3.94-1.8-1.63-.44-3.34-.39-5.01-.3-7.34.4-14.7.95-22.04.27-1.81-.17-3.61-.41-5.4-.75-.92-.17-1.83-.37-2.73-.59s-2.35-.36-3.06-.94c-1.68-1.37,2.59-3.42,3.39-3.84,1.47-.78,3-1.42,4.58-1.93,6.12-1.99,12.76-2.05,19.03-.77,1.71.35,3.39.8,5.04,1.34,1.51.5,3.13,1.4,4.76,1,1.73-.42,3.33-1.76,4.83-2.67,1.95-1.18,3.89-2.36,5.84-3.53l-.77-.59c-.87,3.88-2.92,7.3-5.92,9.92-.51.44.23,1.18.74.74,3.13-2.72,5.28-6.34,6.19-10.38.1-.43-.36-.84-.77-.59-1.74,1.05-3.47,2.1-5.21,3.15-.83.5-1.67,1.01-2.5,1.51s-1.74,1.2-2.7,1.43c-1.05.24-2.1-.27-3.07-.61-.82-.29-1.64-.56-2.47-.81-1.61-.47-3.24-.86-4.89-1.15-6.34-1.12-13.03-.91-19.14,1.25-1.46.52-2.89,1.14-4.26,1.88-1.23.66-2.72,1.4-3.61,2.51-2.47,3.07,2.97,3.95,4.84,4.36,7.54,1.67,15.33,1.6,23,1.21,4.24-.21,9.11-1.28,13.06.69s8.04,4.52,12.03,6.78c.47.26.96-.26.72-.72-2.47-4.65-6.72-8.79-11.32-11.33-.59-.33-1.12.58-.53.9h0Z" fill="#3848a0" stroke-width="0"/><path d="M182.96,16.96c4.11,2.22,8.99,7,11.13,11.14-3.46-1.96-6.91-3.91-10.37-5.87-1.22-.69-2.46-1.39-3.81-1.75-1.72-.46-3.54-.36-5.32-.25-10.76.65-21.79,1.37-32.12-1.73-.63-.19-1.33-.46-1.58-1.06-.39-.92.51-1.85,1.33-2.42,9.52-6.54,22.42-6.52,33.27-2.53.83.31,1.7.64,2.58.54.79-.09,1.49-.51,2.17-.92,2.92-1.77,5.84-3.53,8.75-5.3-.83,3.92-3,7.55-6.05,10.15" fill="#3848a0" stroke-width="0"/><path d="M182.69,17.41c4.45,2.46,8.56,6.46,10.94,10.95l.72-.72c-3.45-1.96-6.91-3.92-10.37-5.87-1.26-.71-2.53-1.43-3.94-1.8-1.63-.44-3.34-.39-5.01-.3-7.34.4-14.7.95-22.04.27-1.81-.17-3.61-.41-5.4-.75-.92-.17-1.83-.37-2.73-.59s-2.35-.36-3.06-.94c-1.68-1.37,2.59-3.42,3.39-3.84,1.47-.78,3-1.42,4.58-1.93,6.12-1.99,12.76-2.05,19.03-.77,1.71.35,3.39.8,5.04,1.34,1.51.5,3.13,1.4,4.76,1,1.73-.42,3.33-1.76,4.83-2.67,1.95-1.18,3.89-2.36,5.84-3.53l-.77-.59c-.87,3.88-2.92,7.3-5.92,9.92-.51.44.23,1.18.74.74,3.13-2.72,5.28-6.34,6.19-10.38.1-.43-.36-.84-.77-.59-1.74,1.05-3.47,2.1-5.21,3.15-.83.5-1.67,1.01-2.5,1.51s-1.74,1.2-2.7,1.43c-1.05.24-2.1-.27-3.07-.61-.82-.29-1.64-.56-2.47-.81-1.61-.47-3.24-.86-4.89-1.15-6.34-1.12-13.03-.91-19.14,1.25-1.46.52-2.89,1.14-4.26,1.88-1.23.66-2.72,1.4-3.61,2.51-2.47,3.07,2.97,3.95,4.84,4.36,7.54,1.67,15.33,1.6,23,1.21,4.24-.21,9.11-1.28,13.06.69s8.04,4.52,12.03,6.78c.47.26.96-.26.72-.72-2.47-4.65-6.72-8.79-11.32-11.33-.59-.33-1.12.58-.53.9h0Z" fill="#3848a0" stroke-width="0"/><path d="M177.89,76.97c-4.11-2.22-8.99-7-11.13-11.14,3.46,1.96,6.91,3.91,10.37,5.87,1.22.69,2.46,1.39,3.81,1.75,1.72.46,3.54.36,5.32.25,10.76-.65,21.79-1.37,32.12,1.73.63.19,1.33.46,1.58,1.06.39.92-.51,1.85-1.33,2.42-9.52,6.54-22.42,6.52-33.27,2.53-.83-.31-1.7-.64-2.58-.54-.79.09-1.49.51-2.17.92-2.92,1.77-5.84,3.53-8.75,5.3.83-3.92,3-7.55,6.05-10.15" fill="#3848a0" stroke-width="0"/><path d="M178.15,76.52c-4.45-2.46-8.56-6.46-10.94-10.95l-.72.72c3.45,1.96,6.91,3.92,10.37,5.87,1.26.71,2.53,1.43,3.94,1.8,1.63.44,3.34.39,5.01.3,7.34-.4,14.7-.95,22.04-.27,1.81.17,3.61.41,5.4.75.92.17,1.83.37,2.73.59s2.35.36,3.06.94c1.68,1.37-2.59,3.42-3.39,3.84-1.47.78-3,1.42-4.58,1.93-6.12,1.99-12.76,2.05-19.03.77-1.71-.35-3.39-.8-5.04-1.34-1.51-.5-3.13-1.4-4.76-1-1.73.42-3.33,1.76-4.83,2.67-1.95,1.18-3.89,2.36-5.84,3.53l.77.59c.87-3.88,2.92-7.3,5.92-9.92.51-.44-.23-1.18-.74-.74-3.13,2.72-5.28,6.34-6.19,10.38-.1.43.36.84.77.59,1.74-1.05,3.47-2.1,5.21-3.15.83-.5,1.67-1.01,2.5-1.51s1.74-1.2,2.7-1.43c1.05-.24,2.1.27,3.07.61.82.29,1.64.56,2.47.81,1.61.47,3.24.86,4.89,1.15,6.34,1.12,13.03.91,19.14-1.25,1.46-.52,2.89-1.14,4.26-1.88,1.23-.66,2.72-1.4,3.61-2.51,2.47-3.07-2.97-3.95-4.84-4.36-7.54-1.67-15.33-1.6-23-1.21-4.24.21-9.11,1.28-13.06-.69s-8.04-4.52-12.03-6.78c-.47-.26-.96.26-.72.72,2.47,4.65,6.72,8.79,11.32,11.33.59.33,1.12-.58.53-.9h0Z" fill="#3848a0" stroke-width="0"/></g><circle cx="43.72" cy="35.73" r="25.14" fill="#dda403" stroke-width="0"/><path d="M40.74,27.67l-2.08.37.22,1.25,2.02-.36.13.74-2.02.36.3,1.73,2.08-.37.13.73-2.86.5-.91-5.18,2.86-.5.13.73Z" fill="#3848a0" stroke="#3848a0" stroke-miterlimit="10" stroke-width=".09"/><path d="M42.81,31.89l-.98-5.54,4.48,3.29-.64-3.6.78-.14.97,5.5-4.48-3.28.64,3.63-.78.14Z" fill="#3848a0" stroke="#3848a0" stroke-miterlimit="10" stroke-width=".09"/><path d="M33.43,44.1l-3.77.67-.6,2.31-1.43.25,2.71-10.14,5.86,8.63-1.46.26-1.3-1.98ZM32.66,42.95l-1.83-2.77-.84,3.24,2.68-.47Z" fill="#3848a0" stroke-width="0"/><path d="M40.71,40.29l3.64-.64.05.29c.12.66.14,1.26.08,1.8-.07.5-.25.99-.54,1.46-.66,1.06-1.62,1.71-2.88,1.93-1.23.22-2.37-.04-3.4-.78-1.04-.74-1.66-1.73-1.89-2.99-.23-1.28.03-2.44.77-3.49.74-1.05,1.75-1.69,3.03-1.92.69-.12,1.36-.1,2,.08.62.18,1.26.54,1.93,1.07l-.79,1.07c-.89-.83-1.86-1.16-2.9-.98-.93.17-1.66.63-2.18,1.38-.52.74-.7,1.59-.53,2.54.17.98.67,1.73,1.48,2.24.76.47,1.53.64,2.3.51.65-.11,1.2-.44,1.65-.97.44-.54.64-1.12.59-1.75l-2.2.39-.22-1.25Z" fill="#3848a0" stroke-width="0"/><path d="M46.66,34.89l.94,5.31c.13.76.36,1.29.66,1.6.46.44,1.02.6,1.69.49.67-.12,1.15-.47,1.43-1.04.19-.38.21-.96.08-1.73l-.94-5.31,1.33-.24,1,5.68c.16.93,0,1.75-.46,2.45-.53.79-1.27,1.26-2.22,1.43s-1.8-.03-2.57-.58c-.68-.5-1.11-1.21-1.27-2.14l-1-5.67,1.33-.23Z" fill="#3848a0" stroke-width="0"/><path d="M60.02,39.41l-3.77.67-.6,2.31-1.43.25,2.71-10.14,5.86,8.63-1.46.26-1.3-1.98ZM59.26,38.26l-1.83-2.77-.84,3.24,2.68-.47Z" fill="#3848a0" stroke-width="0"/><path d="M17.63,94.56c1.87,0,3.62.12,5.25.36,1.63.24,2.8.49,3.51.74l1.03.38v9.79c-1.85-.84-4.38-1.27-7.6-1.27v.89c2.97.23,5.1.82,6.4,1.78,1.3.96,1.95,2.41,1.95,4.35,0,2.33-.95,4.13-2.84,5.41-1.89,1.28-4.81,1.92-8.76,1.92-2.26,0-4.26-.13-5.99-.39-1.73-.26-2.9-.52-3.49-.77l-.92-.41v-8.52c.21.09.51.22.92.38.41.16,1.33.37,2.76.62,1.43.25,2.96.38,4.6.38v-.82c-2.78-.21-4.88-.8-6.3-1.78-1.41-.98-2.12-2.69-2.12-5.13s.97-4.36,2.91-5.77,4.84-2.1,8.69-2.1Z" fill="#3848a0" stroke-width="0"/><path d="M43.29,118.55l-.21-3.66h-2.09l-.2,3.66h-10.78c.23-3.74.7-7.58,1.4-11.51.71-3.93,1.36-6.94,1.95-9.02l.86-3.11h16.22c.25.82.57,1.96.96,3.42.39,1.46.96,4.26,1.71,8.4s1.27,8.08,1.54,11.82h-11.36ZM41.51,106.4l-.27,5.34h1.61l-.24-5.34h-1.09Z" fill="#3848a0" stroke-width="0"/><path d="M68.75,111.64v6.91h-11.77v-23.64h12.42c4.08,0,7.08.67,9,2,1.92,1.33,2.87,3.64,2.87,6.93,0,2.49-.81,4.32-2.43,5.51,1.37,2.44,2.41,5.51,3.11,9.2h-11.26c-.18-2.3-.5-4.33-.96-6.09l-.24-.82h-.75ZM68.75,108.87h.99c.27,0,.5-.09.68-.27s.27-.42.27-.72v-2.05c0-.3-.09-.53-.27-.7-.18-.17-.41-.26-.68-.26h-.99v4Z" fill="#3848a0" stroke-width="0"/><path d="M84.32,94.91h12.35c3.81,0,6.72.91,8.74,2.74s3.03,4.8,3.03,8.93c0,7.98-4.08,11.98-12.25,11.98h-11.87v-23.64ZM95.81,104.86v5.92h.96c.27,0,.51-.09.7-.27.19-.18.29-.42.29-.72v-3.97c0-.27-.1-.5-.29-.68s-.43-.27-.7-.27h-.96Z" fill="#3848a0" stroke-width="0"/><path d="M111.25,118.55v-23.64h11.77v23.64h-11.77Z" fill="#3848a0" stroke-width="0"/><path d="M125.86,94.91h10.47l2.16,7.05v-7.05h10.54v23.64h-10.54l-1.81-6.91v6.91h-10.81v-23.64Z" fill="#3848a0" stroke-width="0"/><path d="M164.62,118.55l-.21-3.66h-2.09l-.2,3.66h-10.78c.23-3.74.7-7.58,1.4-11.51.71-3.93,1.36-6.94,1.95-9.02l.86-3.11h16.22c.25.82.57,1.96.96,3.42.39,1.46.96,4.26,1.71,8.4s1.27,8.08,1.54,11.82h-11.36ZM162.84,106.4l-.27,5.34h1.61l-.24-5.34h-1.09Z" fill="#3848a0" stroke-width="0"/><path d="M189.91,94.56c1.87,0,3.62.12,5.25.36,1.63.24,2.8.49,3.51.74l1.03.38v9.79c-1.85-.84-4.38-1.27-7.6-1.27v.89c2.97.23,5.1.82,6.4,1.78,1.3.96,1.95,2.41,1.95,4.35,0,2.33-.95,4.13-2.84,5.41-1.89,1.28-4.81,1.92-8.76,1.92-2.26,0-4.26-.13-5.99-.39-1.73-.26-2.9-.52-3.49-.77l-.92-.41v-8.52c.21.09.51.22.92.38.41.16,1.33.37,2.76.62,1.43.25,2.96.38,4.6.38v-.82c-2.78-.21-4.88-.8-6.3-1.78-1.41-.98-2.12-2.69-2.12-5.13s.97-4.36,2.91-5.77,4.84-2.1,8.69-2.1Z" fill="#3848a0" stroke-width="0"/><path d="M163.67,77.4v1.71h-.64v-4.21h.72c.35,0,.62.02.8.07.18.05.34.14.48.28.24.24.36.53.36.89,0,.39-.13.69-.39.92-.26.23-.61.34-1.04.34h-.3ZM163.67,76.82h.24c.58,0,.88-.23.88-.67s-.3-.65-.9-.65h-.21v1.33Z" fill="#f5dbc8" stroke-width="0"/><path d="M168.43,75.5h-1.69v1.01h1.64v.6h-1.64v1.41h1.69v.6h-2.32v-4.21h2.32v.6Z" fill="#f5dbc8" stroke-width="0"/><path d="M171.7,75.53l-.52.3c-.1-.17-.19-.28-.28-.33-.09-.06-.21-.09-.35-.09-.18,0-.32.05-.44.15-.12.1-.17.22-.17.37,0,.21.15.37.46.5l.42.17c.34.14.59.31.75.51.16.2.24.44.24.73,0,.39-.13.71-.39.96-.26.26-.58.38-.97.38-.37,0-.67-.11-.91-.32-.23-.22-.38-.52-.44-.91l.64-.14c.03.25.08.42.15.51.13.18.32.27.57.27.2,0,.36-.07.49-.2.13-.13.2-.3.2-.5,0-.08-.01-.16-.03-.23-.02-.07-.06-.13-.11-.19-.05-.06-.11-.11-.19-.16-.08-.05-.17-.1-.27-.14l-.41-.17c-.58-.24-.86-.6-.86-1.07,0-.32.12-.58.36-.79.24-.21.54-.32.9-.32.49,0,.86.24,1.14.71Z" fill="#f5dbc8" stroke-width="0"/><path d="M172.43,76.99c0-.59.22-1.1.65-1.53.43-.43.95-.64,1.56-.64s1.11.21,1.54.64c.43.43.65.94.65,1.55s-.22,1.12-.65,1.54c-.43.42-.96.64-1.57.64-.54,0-1.03-.19-1.47-.56-.48-.42-.72-.96-.72-1.64ZM173.07,77c0,.47.16.85.47,1.15.31.3.67.45,1.08.45.44,0,.81-.15,1.12-.46.3-.31.46-.69.46-1.13s-.15-.83-.45-1.13c-.3-.3-.67-.46-1.11-.46s-.81.15-1.11.46c-.3.3-.45.68-.45,1.12Z" fill="#f5dbc8" stroke-width="0"/><path d="M179.46,79.12v-4.5l3.07,3.21v-2.93h.64v4.47l-3.07-3.21v2.95h-.64Z" fill="#f5dbc8" stroke-width="0"/><path d="M186.56,75.5h-1.69v1.01h1.64v.6h-1.64v1.41h1.69v.6h-2.32v-4.21h2.32v.6Z" fill="#f5dbc8" stroke-width="0"/><path d="M188.61,75.5v3.61h-.64v-3.61h-.97v-.6h2.57v.6h-.97Z" fill="#f5dbc8" stroke-width="0"/><path d="M189.99,76.99c0-.59.22-1.1.65-1.53.43-.43.95-.64,1.56-.64s1.11.21,1.54.64c.43.43.65.94.65,1.55s-.22,1.12-.65,1.54c-.43.42-.96.64-1.57.64-.54,0-1.03-.19-1.47-.56-.48-.42-.72-.96-.72-1.64ZM190.63,77c0,.47.16.85.47,1.15.31.3.67.45,1.08.45.44,0,.81-.15,1.12-.46.3-.31.46-.69.46-1.13s-.15-.83-.45-1.13c-.3-.3-.67-.46-1.11-.46s-.81.15-1.11.46c-.3.3-.45.68-.45,1.12Z" fill="#f5dbc8" stroke-width="0"/><path d="M185.31,83.21c-.31-.22-.46-.52-.46-.89,0-.34.12-.63.35-.86.24-.23.53-.34.88-.34s.64.11.87.34c.23.23.35.51.35.86s-.15.66-.46.89c.17.09.3.22.4.4.1.17.15.37.15.59,0,.37-.12.68-.37.92-.24.24-.56.36-.94.36s-.71-.12-.96-.36c-.26-.24-.38-.54-.38-.91,0-.47.19-.8.57-.99ZM185.36,84.18c0,.19.07.36.2.5.14.14.3.21.5.21s.36-.07.49-.2c.14-.14.2-.3.2-.5s-.07-.36-.2-.5-.3-.2-.49-.2-.36.07-.49.2c-.14.14-.2.3-.2.49ZM185.44,82.31c0,.18.06.33.18.45s.27.19.45.19.32-.06.44-.19.19-.27.19-.44-.06-.32-.19-.45-.27-.19-.44-.19-.32.06-.45.19-.19.27-.19.44Z" fill="#f5dbc8" stroke-width="0"/><path d="M190.03,81.04l.47.35-1.01,1.37c.05,0,.1-.01.14-.02.04,0,.07,0,.09,0,.34,0,.64.13.89.39.25.26.37.57.37.93,0,.39-.14.72-.42.99s-.6.41-.99.41-.72-.14-1-.41c-.28-.27-.42-.59-.42-.96,0-.33.14-.68.41-1.06l1.47-2ZM190.36,84.1c0-.22-.08-.41-.23-.57-.16-.16-.34-.23-.56-.23s-.41.08-.57.23c-.15.15-.23.34-.23.56s.08.41.23.56c.15.15.34.23.57.23s.41-.08.56-.23c.16-.16.23-.34.23-.55Z" fill="#f5dbc8" stroke-width="0"/><path d="M194.3,85.34c0,.12,0,.24-.01.33,0,.1-.02.18-.03.25-.04.2-.13.37-.26.52-.24.28-.57.42-.99.42-.35,0-.65-.1-.88-.29-.24-.2-.37-.47-.41-.82h.62c.02.13.06.23.12.3.13.17.31.25.56.25.45,0,.67-.28.67-.83v-.37c-.24.25-.52.37-.84.37-.36,0-.66-.13-.89-.39-.23-.26-.35-.6-.35-1s.11-.72.32-.99c.23-.29.54-.43.92-.43.34,0,.61.12.83.37v-.3h.61v2.59ZM193.71,84.08c0-.26-.07-.46-.21-.62-.14-.16-.32-.24-.54-.24-.23,0-.42.09-.55.26-.12.15-.18.35-.18.6s.06.44.18.59c.13.17.32.25.55.25s.42-.09.56-.26c.13-.15.19-.35.19-.59Z" fill="#f5dbc8" stroke-width="0"/><line x1="27.11" y1="32.92" x2="35.52" y2="31.43" fill="none" stroke="#3848a0" stroke-miterlimit="10" stroke-width=".7"/><line x1="49.82" y1="28.91" x2="58.23" y2="27.43" fill="none" stroke="#3848a0" stroke-miterlimit="10" stroke-width=".7"/></svg>